<?xml version="1.0" encoding="ISO8859-1"?>
<svg xmlns="http://www.w3.org/2000/svg" xmlns:xlink="http://www.w3.org/1999/xlink" width="288px" height="252px" viewBox="0 0 288 252" version="1.1" id="Fig:dens">
  <metadata xmlns:gridsvg="http://www.stat.auckland.ac.nz/~paul/R/gridSVG/">
    <gridsvg:generator name="gridSVG" version="1.7-1" time="2020-04-21 13:43:43"/>
    <gridsvg:argument name="name" value="./results/QCDir.Raw/dens.svg"/>
    <gridsvg:argument name="exportCoords" value="none"/>
    <gridsvg:argument name="exportMappings" value="none"/>
    <gridsvg:argument name="exportJS" value="none"/>
    <gridsvg:argument name="res" value="72"/>
    <gridsvg:argument name="prefix" value="Fig:dens"/>
    <gridsvg:argument name="addClasses" value="FALSE"/>
    <gridsvg:argument name="indent" value="TRUE"/>
    <gridsvg:argument name="htmlWrapper" value="FALSE"/>
    <gridsvg:argument name="usePaths" value="none"/>
    <gridsvg:argument name="uniqueNames" value="TRUE"/>
    <gridsvg:separator name="id.sep" value="."/>
    <gridsvg:separator name="gPath.sep" value="::"/>
    <gridsvg:separator name="vpPath.sep" value="::"/>
  </metadata>
  <g transform="translate(0, 252) scale(1, -1)">
    <g id="Fig:densgridSVG" fill="none" stroke="rgb(0,0,0)" stroke-dasharray="none" stroke-width="0.75" font-size="12" font-family="Helvetica, Arial, FreeSans, Liberation Sans, Nimbus Sans L, sans-serif" opacity="1" stroke-linecap="round" stroke-linejoin="round" stroke-miterlimit="10" stroke-opacity="1" fill-opacity="0" font-weight="normal" font-style="normal">
      <g id="Fig:densplot_01.background.1">
        <rect id="Fig:densplot_01.background.1.1" x="0" y="0" width="288" height="252" transform="" fill="none" stroke="none" stroke-opacity="0" fill-opacity="0"/>
      </g>
      <g id="Fig:densplot_01.toplevel.vp.1" font-size="12">
        <g id="Fig:densplot_01.ylab.vp.1">
          <g id="Fig:densplot_01.ylab.1">
            <g id="Fig:densplot_01.ylab.1.1" transform="translate(10.31, 138.09)" stroke-width="0.1">
              <g id="Fig:densplot_01.ylab.1.1.scale" transform="scale(1, -1)">
                <text x="0" y="0" id="Fig:densplot_01.ylab.1.1.text" transform="rotate(-90)" text-anchor="middle" opacity="1" stroke="rgb(0,0,0)" fill="rgb(0,0,0)" stroke-opacity="1" fill-opacity="1" font-size="12" font-weight="normal" font-style="normal">
                  <tspan id="Fig:densplot_01.ylab.1.1.tspan.1" dy="4.31" x="0">Density</tspan>
                </text>
              </g>
            </g>
          </g>
        </g>
        <g id="Fig:densplot_01.figure.vp.1"/>
        <defs>
          <clipPath id="Fig:densplot_01.panel.1.1.vp.1.clipPath">
            <rect x="44.8" y="42.19" width="231.2" height="191.81" fill="none" stroke="none"/>
          </clipPath>
        </defs>
        <g id="Fig:densplot_01.panel.1.1.vp.1" clip-path="url(#Fig:densplot_01.panel.1.1.vp.1.clipPath)"/>
        <g id="Fig:densplot_01.strip.1.1.off.vp.1"/>
        <g id="Fig:densplot_01.strip.left.1.1.off.vp.1">
          <g id="Fig:densplot_01.ticks.left.panel.1.1.1">
            <polyline id="Fig:densplot_01.ticks.left.panel.1.1.1.1" points="44.8,53.97 39.13,53.97" stroke="rgb(0,0,0)" opacity="1" stroke-dasharray="none" stroke-width="0.75" stroke-opacity="1" fill="none"/>
            <polyline id="Fig:densplot_01.ticks.left.panel.1.1.1.2" points="44.8,88.31 39.13,88.31" stroke="rgb(0,0,0)" opacity="1" stroke-dasharray="none" stroke-width="0.75" stroke-opacity="1" fill="none"/>
            <polyline id="Fig:densplot_01.ticks.left.panel.1.1.1.3" points="44.8,122.65 39.13,122.65" stroke="rgb(0,0,0)" opacity="1" stroke-dasharray="none" stroke-width="0.75" stroke-opacity="1" fill="none"/>
            <polyline id="Fig:densplot_01.ticks.left.panel.1.1.1.4" points="44.8,157 39.13,157" stroke="rgb(0,0,0)" opacity="1" stroke-dasharray="none" stroke-width="0.75" stroke-opacity="1" fill="none"/>
            <polyline id="Fig:densplot_01.ticks.left.panel.1.1.1.5" points="44.8,191.34 39.13,191.34" stroke="rgb(0,0,0)" opacity="1" stroke-dasharray="none" stroke-width="0.75" stroke-opacity="1" fill="none"/>
            <polyline id="Fig:densplot_01.ticks.left.panel.1.1.1.6" points="44.8,225.68 39.13,225.68" stroke="rgb(0,0,0)" opacity="1" stroke-dasharray="none" stroke-width="0.75" stroke-opacity="1" fill="none"/>
          </g>
          <g id="Fig:densplot_01.ticklabels.left.panel.1.1.1">
            <g id="Fig:densplot_01.ticklabels.left.panel.1.1.1.1" transform="translate(33.47, 53.97)" stroke-width="0.1">
              <g id="Fig:densplot_01.ticklabels.left.panel.1.1.1.1.scale" transform="scale(1, -1)">
                <text x="0" y="0" id="Fig:densplot_01.ticklabels.left.panel.1.1.1.1.text" transform="rotate(-90)" text-anchor="middle" stroke="rgb(0,0,0)" opacity="1" fill="rgb(0,0,0)" stroke-opacity="1" fill-opacity="1" font-size="9.6" font-weight="normal" font-style="normal">
                  <tspan id="Fig:densplot_01.ticklabels.left.panel.1.1.1.1.tspan.1" dy="0" x="0">0.000</tspan>
                </text>
              </g>
            </g>
            <g id="Fig:densplot_01.ticklabels.left.panel.1.1.1.2" transform="translate(33.47, 88.31)" stroke-width="0.1">
              <g id="Fig:densplot_01.ticklabels.left.panel.1.1.1.2.scale" transform="scale(1, -1)">
                <text x="0" y="0" id="Fig:densplot_01.ticklabels.left.panel.1.1.1.2.text" transform="rotate(-90)" text-anchor="middle" stroke="rgb(0,0,0)" opacity="1" fill="rgb(0,0,0)" stroke-opacity="1" fill-opacity="1" font-size="9.6" font-weight="normal" font-style="normal">
                  <tspan id="Fig:densplot_01.ticklabels.left.panel.1.1.1.2.tspan.1" dy="0" x="0">0.001</tspan>
                </text>
              </g>
            </g>
            <g id="Fig:densplot_01.ticklabels.left.panel.1.1.1.3" transform="translate(33.47, 122.65)" stroke-width="0.1">
              <g id="Fig:densplot_01.ticklabels.left.panel.1.1.1.3.scale" transform="scale(1, -1)">
                <text x="0" y="0" id="Fig:densplot_01.ticklabels.left.panel.1.1.1.3.text" transform="rotate(-90)" text-anchor="middle" stroke="rgb(0,0,0)" opacity="1" fill="rgb(0,0,0)" stroke-opacity="1" fill-opacity="1" font-size="9.6" font-weight="normal" font-style="normal">
                  <tspan id="Fig:densplot_01.ticklabels.left.panel.1.1.1.3.tspan.1" dy="0" x="0">0.002</tspan>
                </text>
              </g>
            </g>
            <g id="Fig:densplot_01.ticklabels.left.panel.1.1.1.4" transform="translate(33.47, 157)" stroke-width="0.1">
              <g id="Fig:densplot_01.ticklabels.left.panel.1.1.1.4.scale" transform="scale(1, -1)">
                <text x="0" y="0" id="Fig:densplot_01.ticklabels.left.panel.1.1.1.4.text" transform="rotate(-90)" text-anchor="middle" stroke="rgb(0,0,0)" opacity="1" fill="rgb(0,0,0)" stroke-opacity="1" fill-opacity="1" font-size="9.6" font-weight="normal" font-style="normal">
                  <tspan id="Fig:densplot_01.ticklabels.left.panel.1.1.1.4.tspan.1" dy="0" x="0">0.003</tspan>
                </text>
              </g>
            </g>
            <g id="Fig:densplot_01.ticklabels.left.panel.1.1.1.5" transform="translate(33.47, 191.34)" stroke-width="0.1">
              <g id="Fig:densplot_01.ticklabels.left.panel.1.1.1.5.scale" transform="scale(1, -1)">
                <text x="0" y="0" id="Fig:densplot_01.ticklabels.left.panel.1.1.1.5.text" transform="rotate(-90)" text-anchor="middle" stroke="rgb(0,0,0)" opacity="1" fill="rgb(0,0,0)" stroke-opacity="1" fill-opacity="1" font-size="9.6" font-weight="normal" font-style="normal">
                  <tspan id="Fig:densplot_01.ticklabels.left.panel.1.1.1.5.tspan.1" dy="0" x="0">0.004</tspan>
                </text>
              </g>
            </g>
            <g id="Fig:densplot_01.ticklabels.left.panel.1.1.1.6" transform="translate(33.47, 225.68)" stroke-width="0.1">
              <g id="Fig:densplot_01.ticklabels.left.panel.1.1.1.6.scale" transform="scale(1, -1)">
                <text x="0" y="0" id="Fig:densplot_01.ticklabels.left.panel.1.1.1.6.text" transform="rotate(-90)" text-anchor="middle" stroke="rgb(0,0,0)" opacity="1" fill="rgb(0,0,0)" stroke-opacity="1" fill-opacity="1" font-size="9.6" font-weight="normal" font-style="normal">
                  <tspan id="Fig:densplot_01.ticklabels.left.panel.1.1.1.6.tspan.1" dy="0" x="0">0.005</tspan>
                </text>
              </g>
            </g>
          </g>
        </g>
        <g id="Fig:densplot_01.panel.1.1.off.vp.1">
          <g id="Fig:densplot_01.ticks.bottom.panel.1.1.1">
            <polyline id="Fig:densplot_01.ticks.bottom.panel.1.1.1.1" points="61.75,42.19 61.75,36.52" stroke="rgb(0,0,0)" opacity="1" stroke-dasharray="none" stroke-width="0.75" stroke-opacity="1" fill="none"/>
            <polyline id="Fig:densplot_01.ticks.bottom.panel.1.1.1.2" points="94.94,42.19 94.94,36.52" stroke="rgb(0,0,0)" opacity="1" stroke-dasharray="none" stroke-width="0.75" stroke-opacity="1" fill="none"/>
            <polyline id="Fig:densplot_01.ticks.bottom.panel.1.1.1.3" points="128.12,42.19 128.12,36.52" stroke="rgb(0,0,0)" opacity="1" stroke-dasharray="none" stroke-width="0.75" stroke-opacity="1" fill="none"/>
            <polyline id="Fig:densplot_01.ticks.bottom.panel.1.1.1.4" points="161.31,42.19 161.31,36.52" stroke="rgb(0,0,0)" opacity="1" stroke-dasharray="none" stroke-width="0.75" stroke-opacity="1" fill="none"/>
            <polyline id="Fig:densplot_01.ticks.bottom.panel.1.1.1.5" points="194.5,42.19 194.5,36.52" stroke="rgb(0,0,0)" opacity="1" stroke-dasharray="none" stroke-width="0.75" stroke-opacity="1" fill="none"/>
            <polyline id="Fig:densplot_01.ticks.bottom.panel.1.1.1.6" points="227.69,42.19 227.69,36.52" stroke="rgb(0,0,0)" opacity="1" stroke-dasharray="none" stroke-width="0.75" stroke-opacity="1" fill="none"/>
            <polyline id="Fig:densplot_01.ticks.bottom.panel.1.1.1.7" points="260.88,42.19 260.88,36.52" stroke="rgb(0,0,0)" opacity="1" stroke-dasharray="none" stroke-width="0.75" stroke-opacity="1" fill="none"/>
          </g>
          <g id="Fig:densplot_01.ticklabels.bottom.panel.1.1.1">
            <g id="Fig:densplot_01.ticklabels.bottom.panel.1.1.1.1" transform="translate(61.75, 30.85)" stroke-width="0.1">
              <g id="Fig:densplot_01.ticklabels.bottom.panel.1.1.1.1.scale" transform="scale(1, -1)">
                <text x="0" y="0" id="Fig:densplot_01.ticklabels.bottom.panel.1.1.1.1.text" text-anchor="middle" stroke="rgb(0,0,0)" opacity="1" fill="rgb(0,0,0)" stroke-opacity="1" fill-opacity="1" font-size="9.6" font-weight="normal" font-style="normal">
                  <tspan id="Fig:densplot_01.ticklabels.bottom.panel.1.1.1.1.tspan.1" dy="7.18" x="0">0</tspan>
                </text>
              </g>
            </g>
            <g id="Fig:densplot_01.ticklabels.bottom.panel.1.1.1.2" transform="translate(94.94, 30.85)" stroke-width="0.1">
              <g id="Fig:densplot_01.ticklabels.bottom.panel.1.1.1.2.scale" transform="scale(1, -1)">
                <text x="0" y="0" id="Fig:densplot_01.ticklabels.bottom.panel.1.1.1.2.text" text-anchor="middle" stroke="rgb(0,0,0)" opacity="1" fill="rgb(0,0,0)" stroke-opacity="1" fill-opacity="1" font-size="9.6" font-weight="normal" font-style="normal">
                  <tspan id="Fig:densplot_01.ticklabels.bottom.panel.1.1.1.2.tspan.1" dy="7.18" x="0">1000</tspan>
                </text>
              </g>
            </g>
            <g id="Fig:densplot_01.ticklabels.bottom.panel.1.1.1.3" transform="translate(128.12, 30.85)" stroke-width="0.1">
              <g id="Fig:densplot_01.ticklabels.bottom.panel.1.1.1.3.scale" transform="scale(1, -1)">
                <text x="0" y="0" id="Fig:densplot_01.ticklabels.bottom.panel.1.1.1.3.text" text-anchor="middle" stroke="rgb(0,0,0)" opacity="1" fill="rgb(0,0,0)" stroke-opacity="1" fill-opacity="1" font-size="9.6" font-weight="normal" font-style="normal">
                  <tspan id="Fig:densplot_01.ticklabels.bottom.panel.1.1.1.3.tspan.1" dy="7.18" x="0">2000</tspan>
                </text>
              </g>
            </g>
            <g id="Fig:densplot_01.ticklabels.bottom.panel.1.1.1.4" transform="translate(161.31, 30.85)" stroke-width="0.1">
              <g id="Fig:densplot_01.ticklabels.bottom.panel.1.1.1.4.scale" transform="scale(1, -1)">
                <text x="0" y="0" id="Fig:densplot_01.ticklabels.bottom.panel.1.1.1.4.text" text-anchor="middle" stroke="rgb(0,0,0)" opacity="1" fill="rgb(0,0,0)" stroke-opacity="1" fill-opacity="1" font-size="9.6" font-weight="normal" font-style="normal">
                  <tspan id="Fig:densplot_01.ticklabels.bottom.panel.1.1.1.4.tspan.1" dy="7.18" x="0">3000</tspan>
                </text>
              </g>
            </g>
            <g id="Fig:densplot_01.ticklabels.bottom.panel.1.1.1.5" transform="translate(194.5, 30.85)" stroke-width="0.1">
              <g id="Fig:densplot_01.ticklabels.bottom.panel.1.1.1.5.scale" transform="scale(1, -1)">
                <text x="0" y="0" id="Fig:densplot_01.ticklabels.bottom.panel.1.1.1.5.text" text-anchor="middle" stroke="rgb(0,0,0)" opacity="1" fill="rgb(0,0,0)" stroke-opacity="1" fill-opacity="1" font-size="9.6" font-weight="normal" font-style="normal">
                  <tspan id="Fig:densplot_01.ticklabels.bottom.panel.1.1.1.5.tspan.1" dy="7.18" x="0">4000</tspan>
                </text>
              </g>
            </g>
            <g id="Fig:densplot_01.ticklabels.bottom.panel.1.1.1.6" transform="translate(227.69, 30.85)" stroke-width="0.1">
              <g id="Fig:densplot_01.ticklabels.bottom.panel.1.1.1.6.scale" transform="scale(1, -1)">
                <text x="0" y="0" id="Fig:densplot_01.ticklabels.bottom.panel.1.1.1.6.text" text-anchor="middle" stroke="rgb(0,0,0)" opacity="1" fill="rgb(0,0,0)" stroke-opacity="1" fill-opacity="1" font-size="9.6" font-weight="normal" font-style="normal">
                  <tspan id="Fig:densplot_01.ticklabels.bottom.panel.1.1.1.6.tspan.1" dy="7.18" x="0">5000</tspan>
                </text>
              </g>
            </g>
            <g id="Fig:densplot_01.ticklabels.bottom.panel.1.1.1.7" transform="translate(260.88, 30.85)" stroke-width="0.1">
              <g id="Fig:densplot_01.ticklabels.bottom.panel.1.1.1.7.scale" transform="scale(1, -1)">
                <text x="0" y="0" id="Fig:densplot_01.ticklabels.bottom.panel.1.1.1.7.text" text-anchor="middle" stroke="rgb(0,0,0)" opacity="1" fill="rgb(0,0,0)" stroke-opacity="1" fill-opacity="1" font-size="9.6" font-weight="normal" font-style="normal">
                  <tspan id="Fig:densplot_01.ticklabels.bottom.panel.1.1.1.7.tspan.1" dy="7.18" x="0">6000</tspan>
                </text>
              </g>
            </g>
          </g>
        </g>
        <defs>
          <clipPath id="Fig:densplot_01.panel.1.1.vp.2.clipPath">
            <rect x="44.8" y="42.19" width="231.2" height="191.81" fill="none" stroke="none"/>
          </clipPath>
        </defs>
        <g id="Fig:densplot_01.panel.1.1.vp.2" clip-path="url(#Fig:densplot_01.panel.1.1.vp.2.clipPath)">
          <g id="Fig:densplot_01.xyplot.lines.group.1.panel.1.1.1">
            <polyline id="Fig:densplot_01.xyplot.lines.group.1.panel.1.1.1.1" points="60.84,53.98 61.23,54.01 61.61,54.12 62,54.45 62.39,55.31 62.78,57.25 63.17,61.05 63.56,67.54 63.95,77.18 64.34,89.61 64.73,103.44 65.12,116.52 65.51,126.87 65.9,133.52 66.29,136.52 66.68,136.61 67.07,134.77 67.46,131.85 67.85,128.42 68.24,124.81 68.63,121.19 69.02,117.66 69.41,114.25 69.8,111.01 70.19,107.96 70.58,105.12 70.97,102.51 71.36,100.12 71.75,97.93 72.14,95.89 72.53,93.99 72.92,92.21 73.31,90.55 73.7,89.02 74.09,87.61 74.48,86.31 74.87,85.1 75.26,83.97 75.65,82.91 76.04,81.93 76.43,81 76.82,80.1 77.2,79.23 77.59,78.36 77.98,77.5 78.37,76.65 78.76,75.82 79.15,75.02 79.54,74.27 79.93,73.58 80.32,72.94 80.71,72.36 81.1,71.82 81.49,71.31 81.88,70.8 82.27,70.31 82.66,69.82 83.05,69.35 83.44,68.9 83.83,68.48 84.22,68.09 84.61,67.72 85,67.36 85.39,67.03 85.78,66.72 86.17,66.44 86.56,66.17 86.95,65.92 87.34,65.67 87.73,65.41 88.12,65.14 88.51,64.86 88.9,64.57 89.29,64.28 89.68,64.01 90.07,63.76 90.46,63.54 90.85,63.34 91.24,63.14 91.63,62.93 92.02,62.73 92.4,62.52 92.79,62.32 93.18,62.13 93.57,61.96 93.96,61.82 94.35,61.69 94.74,61.57 95.13,61.46 95.52,61.35 95.91,61.24 96.3,61.12 96.69,60.99 97.08,60.85 97.47,60.71 97.86,60.56 98.25,60.43 98.64,60.31 99.03,60.19 99.42,60.07 99.81,59.95 100.2,59.83 100.59,59.71 100.98,59.59 101.37,59.49 101.76,59.39 102.15,59.31 102.54,59.22 102.93,59.13 103.32,59.03 103.71,58.93 104.1,58.83 104.49,58.74 104.88,58.66 105.27,58.6 105.66,58.55 106.05,58.5 106.44,58.45 106.83,58.4 107.22,58.33 107.6,58.26 107.99,58.2 108.38,58.13 108.77,58.07 109.16,58.01 109.55,57.96 109.94,57.91 110.33,57.85 110.72,57.8 111.11,57.75 111.5,57.69 111.89,57.63 112.28,57.56 112.67,57.49 113.06,57.43 113.45,57.38 113.84,57.34 114.23,57.31 114.62,57.27 115.01,57.22 115.4,57.16 115.79,57.1 116.18,57.03 116.57,56.98 116.96,56.92 117.35,56.88 117.74,56.83 118.13,56.78 118.52,56.74 118.91,56.7 119.3,56.66 119.69,56.63 120.08,56.6 120.47,56.57 120.86,56.55 121.25,56.53 121.64,56.52 122.03,56.51 122.42,56.5 122.8,56.48 123.19,56.46 123.58,56.42 123.97,56.38 124.36,56.35 124.75,56.32 125.14,56.3 125.53,56.27 125.92,56.25 126.31,56.21 126.7,56.17 127.09,56.12 127.48,56.08 127.87,56.04 128.26,56.01 128.65,55.98 129.04,55.95 129.43,55.92 129.82,55.89 130.21,55.87 130.6,55.86 130.99,55.86 131.38,55.86 131.77,55.86 132.16,55.86 132.55,55.84 132.94,55.82 133.33,55.8 133.72,55.77 134.11,55.75 134.5,55.74 134.89,55.72 135.28,55.7 135.67,55.68 136.06,55.64 136.45,55.6 136.84,55.56 137.23,55.52 137.62,55.49 138,55.48 138.39,55.47 138.78,55.46 139.17,55.44 139.56,55.43 139.95,55.42 140.34,55.41 140.73,55.4 141.12,55.39 141.51,55.38 141.9,55.37 142.29,55.35 142.68,55.33 143.07,55.31 143.46,55.3 143.85,55.29 144.24,55.27 144.63,55.26 145.02,55.24 145.41,55.23 145.8,55.21 146.19,55.2 146.58,55.19 146.97,55.18 147.36,55.17 147.75,55.16 148.14,55.15 148.53,55.15 148.92,55.14 149.31,55.14 149.7,55.13 150.09,55.12 150.48,55.1 150.87,55.08 151.26,55.05 151.65,55.03 152.04,55.02 152.43,55.01 152.82,55.01 153.2,55.01 153.59,55.01 153.98,55.01 154.37,55 154.76,54.99 155.15,54.98 155.54,54.96 155.93,54.95 156.32,54.93 156.71,54.92 157.1,54.91 157.49,54.9 157.88,54.89 158.27,54.88 158.66,54.87 159.05,54.86 159.44,54.85 159.83,54.84 160.22,54.83 160.61,54.83 161,54.83 161.39,54.84 161.78,54.84 162.17,54.84 162.56,54.84 162.95,54.83 163.34,54.82 163.73,54.81 164.12,54.79 164.51,54.77 164.9,54.74 165.29,54.72 165.68,54.71 166.07,54.7 166.46,54.69 166.85,54.69 167.24,54.68 167.63,54.68 168.02,54.67 168.4,54.67 168.79,54.66 169.18,54.66 169.57,54.66 169.96,54.65 170.35,54.65 170.74,54.65 171.13,54.64 171.52,54.64 171.91,54.64 172.3,54.63 172.69,54.63 173.08,54.62 173.47,54.61 173.86,54.61 174.25,54.61 174.64,54.6 175.03,54.6 175.42,54.59 175.81,54.58 176.2,54.57 176.59,54.57 176.98,54.57 177.37,54.57 177.76,54.57 178.15,54.57 178.54,54.57 178.93,54.57 179.32,54.56 179.71,54.56 180.1,54.55 180.49,54.53 180.88,54.52 181.27,54.51 181.66,54.5 182.05,54.49 182.44,54.48 182.83,54.48 183.22,54.48 183.61,54.48 183.99,54.48 184.38,54.48 184.77,54.48 185.16,54.48 185.55,54.47 185.94,54.47 186.33,54.46 186.72,54.45 187.11,54.44 187.5,54.43 187.89,54.41 188.28,54.4 188.67,54.39 189.06,54.38 189.45,54.37 189.84,54.37 190.23,54.38 190.62,54.38 191.01,54.39 191.4,54.39 191.79,54.4 192.18,54.4 192.57,54.41 192.96,54.41 193.35,54.41 193.74,54.41 194.13,54.41 194.52,54.41 194.91,54.4 195.3,54.39 195.69,54.37 196.08,54.36 196.47,54.36 196.86,54.35 197.25,54.35 197.64,54.34 198.03,54.34 198.42,54.34 198.81,54.34 199.19,54.34 199.58,54.34 199.97,54.35 200.36,54.35 200.75,54.36 201.14,54.36 201.53,54.35 201.92,54.35 202.31,54.34 202.7,54.34 203.09,54.33 203.48,54.33 203.87,54.33 204.26,54.33 204.65,54.33 205.04,54.33 205.43,54.33 205.82,54.33 206.21,54.32 206.6,54.32 206.99,54.31 207.38,54.31 207.77,54.31 208.16,54.3 208.55,54.3 208.94,54.3 209.33,54.29 209.72,54.29 210.11,54.29 210.5,54.28 210.89,54.28 211.28,54.27 211.67,54.26 212.06,54.26 212.45,54.25 212.84,54.25 213.23,54.25 213.62,54.25 214.01,54.25 214.39,54.25 214.78,54.25 215.17,54.25 215.56,54.25 215.95,54.25 216.34,54.24 216.73,54.24 217.12,54.25 217.51,54.25 217.9,54.26 218.29,54.26 218.68,54.26 219.07,54.25 219.46,54.25 219.85,54.24 220.24,54.24 220.63,54.23 221.02,54.23 221.41,54.23 221.8,54.23 222.19,54.23 222.58,54.23 222.97,54.23 223.36,54.22 223.75,54.22 224.14,54.22 224.53,54.22 224.92,54.22 225.31,54.22 225.7,54.22 226.09,54.22 226.48,54.22 226.87,54.22 227.26,54.21 227.65,54.2 228.04,54.2 228.43,54.19 228.82,54.19 229.21,54.19 229.59,54.2 229.98,54.2 230.37,54.2 230.76,54.2 231.15,54.19 231.54,54.19 231.93,54.18 232.32,54.18 232.71,54.18 233.1,54.18 233.49,54.18 233.88,54.19 234.27,54.19 234.66,54.19 235.05,54.19 235.44,54.19 235.83,54.19 236.22,54.18 236.61,54.18 237,54.17 237.39,54.16 237.78,54.16 238.17,54.16 238.56,54.16 238.95,54.16 239.34,54.16 239.73,54.16 240.12,54.16 240.51,54.15 240.9,54.15 241.29,54.14 241.68,54.14 242.07,54.14 242.46,54.14 242.85,54.14 243.24,54.14 243.63,54.15 244.02,54.15 244.41,54.16 244.79,54.17 245.18,54.17 245.57,54.17 245.96,54.17 246.35,54.16 246.74,54.15 247.13,54.14 247.52,54.13 247.91,54.13 248.3,54.12 248.69,54.12 249.08,54.13 249.47,54.13 249.86,54.13 250.25,54.13 250.64,54.13 251.03,54.12 251.42,54.12 251.81,54.12 252.2,54.12 252.59,54.12 252.98,54.12 253.37,54.12 253.76,54.12 254.15,54.13 254.54,54.13 254.93,54.13 255.32,54.13 255.71,54.12 256.1,54.1 256.49,54.08 256.88,54.06 257.27,54.04 257.66,54.01 258.05,53.99 258.44,53.98 258.83,53.97 259.22,53.97 259.61,53.97 259.99,53.97" stroke-dasharray="none" stroke="rgb(31,120,180)" stroke-width="0.75" opacity="1" stroke-opacity="1" fill="none"/>
          </g>
          <g id="Fig:densplot_01.xyplot.lines.group.2.panel.1.1.1">
            <polyline id="Fig:densplot_01.xyplot.lines.group.2.panel.1.1.1.1" points="61.6,53.98 61.98,54.14 62.37,55.35 62.75,61.82 63.14,82.73 63.52,124.46 63.91,175.48 64.3,211.77 64.68,222.22 65.07,214.16 65.45,198.79 65.84,182.61 66.22,168.17 66.61,156.05 66.99,145.94 67.38,137.36 67.76,129.98 68.15,123.56 68.53,117.92 68.92,112.96 69.31,108.6 69.69,104.68 70.08,101.1 70.46,97.89 70.85,95.01 71.23,92.37 71.62,89.9 72,87.62 72.39,85.61 72.77,83.89 73.16,82.38 73.54,80.99 73.93,79.7 74.31,78.46 74.7,77.29 75.09,76.19 75.47,75.21 75.86,74.35 76.24,73.57 76.63,72.78 77.01,71.99 77.4,71.19 77.78,70.42 78.17,69.74 78.55,69.12 78.94,68.51 79.32,67.92 79.71,67.38 80.09,66.87 80.48,66.4 80.87,65.99 81.25,65.63 81.64,65.23 82.02,64.82 82.41,64.43 82.79,64.07 83.18,63.73 83.56,63.38 83.95,63.06 84.33,62.79 84.72,62.55 85.1,62.29 85.49,61.98 85.88,61.67 86.26,61.37 86.65,61.14 87.03,60.96 87.42,60.78 87.8,60.58 88.19,60.38 88.57,60.21 88.96,60.09 89.34,59.95 89.73,59.76 90.11,59.56 90.5,59.38 90.88,59.21 91.27,59.05 91.66,58.94 92.04,58.87 92.43,58.8 92.81,58.7 93.2,58.56 93.58,58.44 93.97,58.34 94.35,58.23 94.74,58.11 95.12,58.01 95.51,57.93 95.89,57.9 96.28,57.86 96.66,57.8 97.05,57.73 97.44,57.64 97.82,57.57 98.21,57.5 98.59,57.44 98.98,57.41 99.36,57.36 99.75,57.26 100.13,57.12 100.52,57 100.9,56.91 101.29,56.85 101.67,56.82 102.06,56.8 102.45,56.75 102.83,56.67 103.22,56.59 103.6,56.5 103.99,56.43 104.37,56.37 104.76,56.33 105.14,56.3 105.53,56.25 105.91,56.2 106.3,56.17 106.68,56.19 107.07,56.2 107.45,56.17 107.84,56.13 108.23,56.08 108.61,56.02 109,55.94 109.38,55.88 109.77,55.83 110.15,55.79 110.54,55.77 110.92,55.74 111.31,55.7 111.69,55.63 112.08,55.58 112.46,55.54 112.85,55.52 113.23,55.52 113.62,55.53 114.01,55.54 114.39,55.55 114.78,55.53 115.16,55.48 115.55,55.41 115.93,55.36 116.32,55.33 116.7,55.31 117.09,55.3 117.47,55.29 117.86,55.27 118.24,55.22 118.63,55.16 119.02,55.13 119.4,55.13 119.79,55.12 120.17,55.1 120.56,55.09 120.94,55.1 121.33,55.1 121.71,55.09 122.1,55.08 122.48,55.08 122.87,55.05 123.25,55.01 123.64,54.99 124.02,55 124.41,55 124.8,55 125.18,54.98 125.57,54.94 125.95,54.91 126.34,54.89 126.72,54.87 127.11,54.85 127.49,54.82 127.88,54.81 128.26,54.78 128.65,54.76 129.03,54.75 129.42,54.75 129.81,54.76 130.19,54.76 130.58,54.77 130.96,54.78 131.35,54.78 131.73,54.77 132.12,54.75 132.5,54.73 132.89,54.7 133.27,54.68 133.66,54.66 134.04,54.66 134.43,54.67 134.81,54.67 135.2,54.67 135.59,54.66 135.97,54.64 136.36,54.62 136.74,54.62 137.13,54.63 137.51,54.65 137.9,54.66 138.28,54.65 138.67,54.62 139.05,54.57 139.44,54.54 139.82,54.54 140.21,54.53 140.59,54.52 140.98,54.51 141.37,54.51 141.75,54.52 142.14,54.53 142.52,54.54 142.91,54.54 143.29,54.54 143.68,54.52 144.06,54.51 144.45,54.5 144.83,54.47 145.22,54.45 145.6,54.44 145.99,54.45 146.38,54.47 146.76,54.47 147.15,54.46 147.53,54.45 147.92,54.44 148.3,54.44 148.69,54.45 149.07,54.45 149.46,54.45 149.84,54.45 150.23,54.43 150.61,54.4 151,54.39 151.38,54.39 151.77,54.4 152.16,54.4 152.54,54.4 152.93,54.4 153.31,54.39 153.7,54.39 154.08,54.38 154.47,54.37 154.85,54.37 155.24,54.39 155.62,54.4 156.01,54.4 156.39,54.38 156.78,54.35 157.16,54.33 157.55,54.32 157.94,54.32 158.32,54.31 158.71,54.3 159.09,54.3 159.48,54.31 159.86,54.32 160.25,54.33 160.63,54.31 161.02,54.29 161.4,54.29 161.79,54.3 162.17,54.31 162.56,54.32 162.95,54.32 163.33,54.31 163.72,54.3 164.1,54.3 164.49,54.3 164.87,54.29 165.26,54.28 165.64,54.26 166.03,54.25 166.41,54.26 166.8,54.27 167.18,54.26 167.57,54.25 167.95,54.25 168.34,54.26 168.73,54.27 169.11,54.27 169.5,54.26 169.88,54.26 170.27,54.26 170.65,54.26 171.04,54.26 171.42,54.26 171.81,54.25 172.19,54.25 172.58,54.25 172.96,54.24 173.35,54.23 173.74,54.21 174.12,54.21 174.51,54.21 174.89,54.21 175.28,54.22 175.66,54.23 176.05,54.24 176.43,54.24 176.82,54.23 177.2,54.22 177.59,54.22 177.97,54.21 178.36,54.21 178.74,54.21 179.13,54.2 179.52,54.2 179.9,54.19 180.29,54.19 180.67,54.2 181.06,54.21 181.44,54.21 181.83,54.21 182.21,54.22 182.6,54.22 182.98,54.22 183.37,54.21 183.75,54.2 184.14,54.2 184.52,54.2 184.91,54.2 185.3,54.19 185.68,54.17 186.07,54.17 186.45,54.17 186.84,54.17 187.22,54.17 187.61,54.16 187.99,54.16 188.38,54.16 188.76,54.17 189.15,54.16 189.53,54.15 189.92,54.14 190.31,54.13 190.69,54.13 191.08,54.13 191.46,54.14 191.85,54.15 192.23,54.15 192.62,54.15 193,54.14 193.39,54.14 193.77,54.14 194.16,54.14 194.54,54.14 194.93,54.14 195.31,54.13 195.7,54.13 196.09,54.13 196.47,54.12 196.86,54.12 197.24,54.12 197.63,54.12 198.01,54.12 198.4,54.11 198.78,54.11 199.17,54.1 199.55,54.1 199.94,54.1 200.32,54.1 200.71,54.12 201.09,54.13 201.48,54.13 201.87,54.13 202.25,54.12 202.64,54.12 203.02,54.11 203.41,54.11 203.79,54.11 204.18,54.11 204.56,54.12 204.95,54.13 205.33,54.13 205.72,54.12 206.1,54.11 206.49,54.11 206.88,54.11 207.26,54.11 207.65,54.11 208.03,54.1 208.42,54.09 208.8,54.09 209.19,54.09 209.57,54.09 209.96,54.09 210.34,54.1 210.73,54.11 211.11,54.12 211.5,54.12 211.88,54.11 212.27,54.1 212.66,54.1 213.04,54.11 213.43,54.11 213.81,54.1 214.2,54.09 214.58,54.09 214.97,54.08 215.35,54.07 215.74,54.06 216.12,54.06 216.51,54.06 216.89,54.07 217.28,54.08 217.67,54.09 218.05,54.09 218.44,54.09 218.82,54.08 219.21,54.08 219.59,54.07 219.98,54.07 220.36,54.06 220.75,54.07 221.13,54.07 221.52,54.07 221.9,54.07 222.29,54.08 222.67,54.08 223.06,54.08 223.45,54.08 223.83,54.07 224.22,54.07 224.6,54.07 224.99,54.07 225.37,54.08 225.76,54.08 226.14,54.08 226.53,54.07 226.91,54.06 227.3,54.06 227.68,54.07 228.07,54.08 228.45,54.08 228.84,54.08 229.23,54.08 229.61,54.08 230,54.08 230.38,54.07 230.77,54.07 231.15,54.06 231.54,54.06 231.92,54.07 232.31,54.09 232.69,54.09 233.08,54.09 233.46,54.08 233.85,54.06 234.24,54.06 234.62,54.05 235.01,54.05 235.39,54.05 235.78,54.05 236.16,54.05 236.55,54.06 236.93,54.06 237.32,54.07 237.7,54.06 238.09,54.06 238.47,54.05 238.86,54.05 239.24,54.04 239.63,54.04 240.02,54.04 240.4,54.04 240.79,54.04 241.17,54.03 241.56,54.03 241.94,54.04 242.33,54.04 242.71,54.04 243.1,54.04 243.48,54.04 243.87,54.04 244.25,54.04 244.64,54.03 245.02,54.04 245.41,54.05 245.8,54.05 246.18,54.04 246.57,54.04 246.95,54.03 247.34,54.03 247.72,54.03 248.11,54.02 248.49,54.02 248.88,54.02 249.26,54.02 249.65,54.02 250.03,54.03 250.42,54.03 250.81,54.03 251.19,54.03 251.58,54.03 251.96,54.03 252.35,54.03 252.73,54.02 253.12,54.02 253.5,54.01 253.89,54.01 254.27,54.01 254.66,54.02 255.04,54.02 255.43,54.03 255.81,54.02 256.2,54.01 256.59,54.01 256.97,53.99 257.36,53.98 257.74,53.97 258.13,53.97 258.51,53.97" stroke-dasharray="none" stroke="rgb(31,120,180)" stroke-width="0.75" opacity="1" stroke-opacity="1" fill="none"/>
          </g>
          <g id="Fig:densplot_01.xyplot.lines.group.3.panel.1.1.1">
            <polyline id="Fig:densplot_01.xyplot.lines.group.3.panel.1.1.1.1" points="60.73,53.98 61.12,54.03 61.51,54.23 61.9,54.86 62.29,56.56 62.68,60.39 63.07,67.7 63.46,79.47 63.85,95.49 64.24,113.86 64.63,131.43 65.02,145.09 65.41,153.01 65.8,155.14 66.19,152.77 66.58,147.68 66.97,141.41 67.36,134.97 67.75,128.88 68.14,123.33 68.53,118.36 68.92,113.92 69.31,109.96 69.7,106.42 70.09,103.25 70.47,100.38 70.86,97.79 71.25,95.45 71.64,93.32 72.03,91.39 72.42,89.61 72.81,87.95 73.2,86.38 73.59,84.9 73.98,83.51 74.37,82.21 74.76,81 75.15,79.9 75.54,78.87 75.93,77.92 76.32,77.02 76.71,76.15 77.1,75.31 77.49,74.53 77.88,73.8 78.27,73.12 78.66,72.51 79.05,71.96 79.44,71.45 79.83,70.97 80.22,70.5 80.61,70.02 81,69.52 81.39,69.01 81.77,68.5 82.16,68.01 82.55,67.56 82.94,67.15 83.33,66.79 83.72,66.47 84.11,66.18 84.5,65.9 84.89,65.6 85.28,65.28 85.67,64.96 86.06,64.65 86.45,64.36 86.84,64.1 87.23,63.86 87.62,63.63 88.01,63.39 88.4,63.17 88.79,62.95 89.18,62.75 89.57,62.56 89.96,62.38 90.35,62.2 90.74,62.04 91.13,61.89 91.52,61.76 91.91,61.62 92.3,61.48 92.69,61.32 93.07,61.15 93.46,60.97 93.85,60.8 94.24,60.65 94.63,60.53 95.02,60.43 95.41,60.34 95.8,60.25 96.19,60.15 96.58,60.04 96.97,59.93 97.36,59.81 97.75,59.69 98.14,59.57 98.53,59.46 98.92,59.35 99.31,59.25 99.7,59.17 100.09,59.09 100.48,59.02 100.87,58.95 101.26,58.87 101.65,58.78 102.04,58.69 102.43,58.6 102.82,58.53 103.21,58.47 103.6,58.41 103.99,58.35 104.37,58.29 104.76,58.23 105.15,58.16 105.54,58.09 105.93,58.03 106.32,57.96 106.71,57.91 107.1,57.86 107.49,57.81 107.88,57.75 108.27,57.7 108.66,57.64 109.05,57.57 109.44,57.51 109.83,57.45 110.22,57.39 110.61,57.34 111,57.29 111.39,57.24 111.78,57.21 112.17,57.17 112.56,57.14 112.95,57.1 113.34,57.06 113.73,57.02 114.12,56.98 114.51,56.94 114.9,56.9 115.29,56.86 115.68,56.83 116.06,56.79 116.45,56.76 116.84,56.74 117.23,56.71 117.62,56.69 118.01,56.67 118.4,56.64 118.79,56.61 119.18,56.56 119.57,56.51 119.96,56.46 120.35,56.41 120.74,56.37 121.13,56.33 121.52,56.31 121.91,56.3 122.3,56.28 122.69,56.26 123.08,56.23 123.47,56.2 123.86,56.16 124.25,56.13 124.64,56.1 125.03,56.07 125.42,56.05 125.81,56.02 126.2,56 126.59,55.98 126.98,55.96 127.36,55.95 127.75,55.94 128.14,55.94 128.53,55.93 128.92,55.92 129.31,55.9 129.7,55.88 130.09,55.86 130.48,55.84 130.87,55.81 131.26,55.78 131.65,55.76 132.04,55.73 132.43,55.7 132.82,55.67 133.21,55.64 133.6,55.62 133.99,55.6 134.38,55.58 134.77,55.58 135.16,55.57 135.55,55.57 135.94,55.57 136.33,55.57 136.72,55.57 137.11,55.56 137.5,55.54 137.89,55.52 138.28,55.5 138.66,55.48 139.05,55.46 139.44,55.45 139.83,55.45 140.22,55.44 140.61,55.42 141,55.41 141.39,55.39 141.78,55.36 142.17,55.34 142.56,55.32 142.95,55.3 143.34,55.28 143.73,55.26 144.12,55.24 144.51,55.22 144.9,55.2 145.29,55.19 145.68,55.18 146.07,55.19 146.46,55.19 146.85,55.2 147.24,55.2 147.63,55.19 148.02,55.18 148.41,55.15 148.8,55.14 149.19,55.12 149.58,55.12 149.96,55.11 150.35,55.1 150.74,55.08 151.13,55.05 151.52,55.03 151.91,55.01 152.3,55 152.69,55 153.08,55 153.47,55 153.86,54.99 154.25,54.98 154.64,54.97 155.03,54.96 155.42,54.95 155.81,54.95 156.2,54.94 156.59,54.94 156.98,54.93 157.37,54.91 157.76,54.9 158.15,54.88 158.54,54.87 158.93,54.85 159.32,54.84 159.71,54.83 160.1,54.83 160.49,54.82 160.88,54.82 161.26,54.82 161.65,54.81 162.04,54.81 162.43,54.8 162.82,54.8 163.21,54.79 163.6,54.79 163.99,54.79 164.38,54.79 164.77,54.78 165.16,54.77 165.55,54.77 165.94,54.76 166.33,54.75 166.72,54.75 167.11,54.75 167.5,54.75 167.89,54.74 168.28,54.74 168.67,54.73 169.06,54.71 169.45,54.7 169.84,54.68 170.23,54.68 170.62,54.68 171.01,54.68 171.4,54.68 171.79,54.68 172.18,54.68 172.56,54.67 172.95,54.67 173.34,54.66 173.73,54.65 174.12,54.65 174.51,54.65 174.9,54.65 175.29,54.64 175.68,54.64 176.07,54.63 176.46,54.63 176.85,54.63 177.24,54.63 177.63,54.63 178.02,54.63 178.41,54.63 178.8,54.62 179.19,54.62 179.58,54.61 179.97,54.61 180.36,54.62 180.75,54.61 181.14,54.61 181.53,54.6 181.92,54.59 182.31,54.58 182.7,54.58 183.09,54.58 183.48,54.57 183.86,54.57 184.25,54.56 184.64,54.56 185.03,54.55 185.42,54.54 185.81,54.54 186.2,54.53 186.59,54.53 186.98,54.52 187.37,54.51 187.76,54.5 188.15,54.49 188.54,54.49 188.93,54.49 189.32,54.5 189.71,54.5 190.1,54.5 190.49,54.49 190.88,54.49 191.27,54.47 191.66,54.46 192.05,54.45 192.44,54.45 192.83,54.44 193.22,54.44 193.61,54.44 194,54.44 194.39,54.45 194.78,54.46 195.17,54.46 195.55,54.47 195.94,54.47 196.33,54.46 196.72,54.45 197.11,54.43 197.5,54.42 197.89,54.41 198.28,54.41 198.67,54.41 199.06,54.41 199.45,54.41 199.84,54.4 200.23,54.4 200.62,54.39 201.01,54.39 201.4,54.4 201.79,54.4 202.18,54.41 202.57,54.42 202.96,54.41 203.35,54.41 203.74,54.39 204.13,54.38 204.52,54.37 204.91,54.36 205.3,54.36 205.69,54.36 206.08,54.37 206.47,54.37 206.85,54.36 207.24,54.36 207.63,54.35 208.02,54.34 208.41,54.34 208.8,54.33 209.19,54.33 209.58,54.33 209.97,54.33 210.36,54.33 210.75,54.33 211.14,54.32 211.53,54.32 211.92,54.32 212.31,54.31 212.7,54.31 213.09,54.31 213.48,54.3 213.87,54.3 214.26,54.3 214.65,54.29 215.04,54.29 215.43,54.29 215.82,54.3 216.21,54.3 216.6,54.31 216.99,54.32 217.38,54.33 217.77,54.33 218.15,54.33 218.54,54.33 218.93,54.32 219.32,54.32 219.71,54.31 220.1,54.31 220.49,54.3 220.88,54.3 221.27,54.3 221.66,54.3 222.05,54.3 222.44,54.3 222.83,54.3 223.22,54.3 223.61,54.29 224,54.29 224.39,54.29 224.78,54.28 225.17,54.28 225.56,54.27 225.95,54.26 226.34,54.25 226.73,54.25 227.12,54.24 227.51,54.23 227.9,54.23 228.29,54.23 228.68,54.23 229.07,54.24 229.45,54.24 229.84,54.25 230.23,54.25 230.62,54.25 231.01,54.24 231.4,54.23 231.79,54.22 232.18,54.22 232.57,54.22 232.96,54.22 233.35,54.23 233.74,54.23 234.13,54.24 234.52,54.24 234.91,54.24 235.3,54.23 235.69,54.23 236.08,54.22 236.47,54.22 236.86,54.22 237.25,54.22 237.64,54.23 238.03,54.23 238.42,54.23 238.81,54.23 239.2,54.22 239.59,54.21 239.98,54.2 240.37,54.19 240.75,54.19 241.14,54.19 241.53,54.19 241.92,54.19 242.31,54.19 242.7,54.19 243.09,54.19 243.48,54.19 243.87,54.19 244.26,54.19 244.65,54.19 245.04,54.19 245.43,54.19 245.82,54.19 246.21,54.19 246.6,54.19 246.99,54.19 247.38,54.19 247.77,54.19 248.16,54.19 248.55,54.19 248.94,54.19 249.33,54.19 249.72,54.19 250.11,54.2 250.5,54.2 250.89,54.21 251.28,54.2 251.67,54.2 252.05,54.19 252.44,54.19 252.83,54.19 253.22,54.19 253.61,54.19 254,54.19 254.39,54.19 254.78,54.18 255.17,54.18 255.56,54.17 255.95,54.15 256.34,54.13 256.73,54.1 257.12,54.07 257.51,54.03 257.9,54.01 258.29,53.99 258.68,53.98 259.07,53.97 259.46,53.97 259.85,53.97" stroke-dasharray="none" stroke="rgb(31,120,180)" stroke-width="0.75" opacity="1" stroke-opacity="1" fill="none"/>
          </g>
          <g id="Fig:densplot_01.xyplot.lines.group.4.panel.1.1.1">
            <polyline id="Fig:densplot_01.xyplot.lines.group.4.panel.1.1.1.1" points="59,53.97 59.4,53.98 59.79,54 60.19,54.04 60.59,54.13 60.98,54.31 61.38,54.63 61.78,55.19 62.18,56.1 62.57,57.49 62.97,59.51 63.37,62.26 63.76,65.81 64.16,70.14 64.56,75.12 64.95,80.45 65.35,85.8 65.75,90.86 66.14,95.31 66.54,98.95 66.94,101.67 67.33,103.45 67.73,104.37 68.13,104.57 68.53,104.19 68.92,103.4 69.32,102.31 69.72,101.05 70.11,99.7 70.51,98.3 70.91,96.89 71.3,95.51 71.7,94.17 72.1,92.87 72.49,91.61 72.89,90.4 73.29,89.24 73.68,88.12 74.08,87.04 74.48,86.01 74.88,85.03 75.27,84.11 75.67,83.23 76.07,82.4 76.46,81.61 76.86,80.85 77.26,80.12 77.65,79.41 78.05,78.72 78.45,78.05 78.84,77.4 79.24,76.77 79.64,76.16 80.03,75.57 80.43,75 80.83,74.45 81.23,73.93 81.62,73.43 82.02,72.95 82.42,72.51 82.81,72.08 83.21,71.67 83.61,71.27 84,70.89 84.4,70.51 84.8,70.14 85.19,69.77 85.59,69.41 85.99,69.06 86.38,68.72 86.78,68.39 87.18,68.07 87.58,67.76 87.97,67.47 88.37,67.18 88.77,66.91 89.16,66.64 89.56,66.38 89.96,66.13 90.35,65.89 90.75,65.66 91.15,65.44 91.54,65.22 91.94,65.02 92.34,64.82 92.73,64.62 93.13,64.43 93.53,64.24 93.93,64.06 94.32,63.87 94.72,63.69 95.12,63.51 95.51,63.34 95.91,63.17 96.31,63.02 96.7,62.88 97.1,62.75 97.5,62.62 97.89,62.5 98.29,62.37 98.69,62.25 99.08,62.13 99.48,62 99.88,61.88 100.28,61.75 100.67,61.63 101.07,61.52 101.47,61.4 101.86,61.29 102.26,61.19 102.66,61.09 103.05,60.99 103.45,60.9 103.85,60.81 104.24,60.72 104.64,60.63 105.04,60.54 105.43,60.44 105.83,60.35 106.23,60.26 106.63,60.17 107.02,60.08 107.42,59.99 107.82,59.91 108.21,59.82 108.61,59.74 109.01,59.66 109.4,59.59 109.8,59.51 110.2,59.44 110.59,59.38 110.99,59.31 111.39,59.25 111.78,59.2 112.18,59.14 112.58,59.09 112.98,59.03 113.37,58.97 113.77,58.92 114.17,58.86 114.56,58.81 114.96,58.76 115.36,58.71 115.75,58.66 116.15,58.61 116.55,58.56 116.94,58.51 117.34,58.46 117.74,58.4 118.13,58.35 118.53,58.29 118.93,58.23 119.33,58.18 119.72,58.12 120.12,58.07 120.52,58.03 120.91,57.98 121.31,57.93 121.71,57.89 122.1,57.85 122.5,57.81 122.9,57.77 123.29,57.73 123.69,57.69 124.09,57.66 124.48,57.62 124.88,57.59 125.28,57.55 125.68,57.52 126.07,57.48 126.47,57.44 126.87,57.39 127.26,57.34 127.66,57.3 128.06,57.25 128.45,57.2 128.85,57.16 129.25,57.12 129.64,57.09 130.04,57.06 130.44,57.03 130.83,57.01 131.23,56.99 131.63,56.98 132.03,56.97 132.42,56.97 132.82,56.96 133.22,56.96 133.61,56.95 134.01,56.93 134.41,56.92 134.8,56.89 135.2,56.87 135.6,56.84 135.99,56.81 136.39,56.78 136.79,56.75 137.18,56.72 137.58,56.69 137.98,56.66 138.38,56.63 138.77,56.59 139.17,56.56 139.57,56.52 139.96,56.49 140.36,56.46 140.76,56.43 141.15,56.4 141.55,56.37 141.95,56.35 142.34,56.32 142.74,56.3 143.14,56.28 143.53,56.26 143.93,56.24 144.33,56.22 144.73,56.2 145.12,56.18 145.52,56.16 145.92,56.14 146.31,56.12 146.71,56.1 147.11,56.08 147.5,56.06 147.9,56.05 148.3,56.03 148.69,56.02 149.09,56.01 149.49,56 149.88,55.99 150.28,55.97 150.68,55.96 151.08,55.95 151.47,55.93 151.87,55.92 152.27,55.9 152.66,55.89 153.06,55.88 153.46,55.87 153.85,55.85 154.25,55.84 154.65,55.83 155.04,55.82 155.44,55.8 155.84,55.78 156.23,55.76 156.63,55.74 157.03,55.72 157.43,55.7 157.82,55.68 158.22,55.66 158.62,55.65 159.01,55.63 159.41,55.62 159.81,55.61 160.2,55.61 160.6,55.6 161,55.59 161.39,55.58 161.79,55.57 162.19,55.57 162.58,55.56 162.98,55.55 163.38,55.54 163.78,55.53 164.17,55.52 164.57,55.51 164.97,55.5 165.36,55.49 165.76,55.47 166.16,55.46 166.55,55.44 166.95,55.43 167.35,55.42 167.74,55.41 168.14,55.4 168.54,55.39 168.93,55.39 169.33,55.38 169.73,55.37 170.13,55.37 170.52,55.36 170.92,55.35 171.32,55.34 171.71,55.33 172.11,55.32 172.51,55.32 172.9,55.31 173.3,55.3 173.7,55.29 174.09,55.28 174.49,55.27 174.89,55.26 175.28,55.25 175.68,55.24 176.08,55.24 176.48,55.23 176.87,55.22 177.27,55.22 177.67,55.21 178.06,55.2 178.46,55.19 178.86,55.18 179.25,55.17 179.65,55.16 180.05,55.15 180.44,55.14 180.84,55.13 181.24,55.12 181.63,55.11 182.03,55.11 182.43,55.1 182.83,55.09 183.22,55.08 183.62,55.07 184.02,55.07 184.41,55.06 184.81,55.05 185.21,55.04 185.6,55.04 186,55.03 186.4,55.03 186.79,55.02 187.19,55.02 187.59,55.01 187.98,55.01 188.38,55 188.78,55 189.18,54.99 189.57,54.98 189.97,54.98 190.37,54.97 190.76,54.96 191.16,54.95 191.56,54.94 191.95,54.93 192.35,54.92 192.75,54.91 193.14,54.9 193.54,54.9 193.94,54.89 194.33,54.89 194.73,54.88 195.13,54.88 195.53,54.87 195.92,54.87 196.32,54.86 196.72,54.86 197.11,54.85 197.51,54.85 197.91,54.84 198.3,54.84 198.7,54.83 199.1,54.82 199.49,54.81 199.89,54.8 200.29,54.79 200.68,54.78 201.08,54.77 201.48,54.77 201.88,54.77 202.27,54.76 202.67,54.77 203.07,54.77 203.46,54.78 203.86,54.78 204.26,54.78 204.65,54.79 205.05,54.79 205.45,54.79 205.84,54.78 206.24,54.78 206.64,54.78 207.03,54.77 207.43,54.77 207.83,54.76 208.23,54.75 208.62,54.75 209.02,54.74 209.42,54.73 209.81,54.72 210.21,54.71 210.61,54.7 211,54.69 211.4,54.68 211.8,54.67 212.19,54.66 212.59,54.66 212.99,54.66 213.38,54.66 213.78,54.66 214.18,54.66 214.58,54.66 214.97,54.66 215.37,54.66 215.77,54.65 216.16,54.65 216.56,54.65 216.96,54.64 217.35,54.64 217.75,54.64 218.15,54.63 218.54,54.63 218.94,54.63 219.34,54.63 219.73,54.63 220.13,54.62 220.53,54.62 220.93,54.62 221.32,54.62 221.72,54.61 222.12,54.6 222.51,54.59 222.91,54.59 223.31,54.58 223.7,54.57 224.1,54.57 224.5,54.56 224.89,54.56 225.29,54.56 225.69,54.56 226.08,54.57 226.48,54.57 226.88,54.57 227.28,54.57 227.67,54.57 228.07,54.57 228.47,54.56 228.86,54.55 229.26,54.55 229.66,54.54 230.05,54.53 230.45,54.53 230.85,54.52 231.24,54.52 231.64,54.52 232.04,54.52 232.43,54.52 232.83,54.51 233.23,54.51 233.63,54.51 234.02,54.51 234.42,54.51 234.82,54.51 235.21,54.51 235.61,54.5 236.01,54.5 236.4,54.5 236.8,54.5 237.2,54.49 237.59,54.49 237.99,54.49 238.39,54.49 238.78,54.49 239.18,54.48 239.58,54.48 239.98,54.47 240.37,54.46 240.77,54.46 241.17,54.45 241.56,54.44 241.96,54.44 242.36,54.43 242.75,54.43 243.15,54.43 243.55,54.43 243.94,54.43 244.34,54.43 244.74,54.43 245.13,54.43 245.53,54.43 245.93,54.43 246.33,54.42 246.72,54.42 247.12,54.42 247.52,54.41 247.91,54.41 248.31,54.41 248.71,54.41 249.1,54.41 249.5,54.4 249.9,54.4 250.29,54.4 250.69,54.4 251.09,54.4 251.48,54.4 251.88,54.4 252.28,54.4 252.68,54.4 253.07,54.4 253.47,54.4 253.87,54.39 254.26,54.38 254.66,54.36 255.06,54.35 255.45,54.32 255.85,54.29 256.25,54.26 256.64,54.22 257.04,54.18 257.44,54.14 257.83,54.1 258.23,54.06 258.63,54.03 259.03,54.01 259.42,53.99 259.82,53.98 260.22,53.98 260.61,53.97 261.01,53.97 261.41,53.97 261.8,53.97" stroke-dasharray="none" stroke="rgb(31,120,180)" stroke-width="0.75" opacity="1" stroke-opacity="1" fill="none"/>
          </g>
          <g id="Fig:densplot_01.xyplot.lines.group.5.panel.1.1.1">
            <polyline id="Fig:densplot_01.xyplot.lines.group.5.panel.1.1.1.1" points="61.49,53.98 61.88,54.06 62.27,54.64 62.65,57.27 63.04,65.64 63.43,84.38 63.81,114.04 64.2,147.37 64.58,173.45 64.97,186.16 65.36,186.93 65.74,180.73 66.13,171.75 66.52,162.28 66.9,153.32 67.29,145.17 67.67,137.84 68.06,131.29 68.45,125.45 68.83,120.26 69.22,115.62 69.61,111.48 69.99,107.76 70.38,104.37 70.76,101.19 71.15,98.23 71.54,95.54 71.92,93.14 72.31,90.95 72.69,88.93 73.08,87.1 73.47,85.47 73.85,83.95 74.24,82.5 74.63,81.13 75.01,79.87 75.4,78.69 75.78,77.56 76.17,76.5 76.56,75.55 76.94,74.72 77.33,73.99 77.72,73.31 78.1,72.62 78.49,71.96 78.87,71.31 79.26,70.66 79.65,70.03 80.03,69.42 80.42,68.84 80.81,68.29 81.19,67.75 81.58,67.23 81.96,66.73 82.35,66.27 82.74,65.87 83.12,65.49 83.51,65.1 83.9,64.72 84.28,64.38 84.67,64.1 85.05,63.82 85.44,63.51 85.83,63.18 86.21,62.87 86.6,62.6 86.99,62.34 87.37,62.07 87.76,61.82 88.14,61.58 88.53,61.36 88.92,61.17 89.3,61.03 89.69,60.93 90.07,60.82 90.46,60.67 90.85,60.48 91.23,60.29 91.62,60.1 92.01,59.91 92.39,59.72 92.78,59.57 93.16,59.45 93.55,59.36 93.94,59.27 94.32,59.18 94.71,59.06 95.1,58.91 95.48,58.73 95.87,58.57 96.25,58.43 96.64,58.32 97.03,58.23 97.41,58.15 97.8,58.08 98.19,58.01 98.57,57.94 98.96,57.86 99.34,57.78 99.73,57.7 100.12,57.61 100.5,57.53 100.89,57.43 101.28,57.35 101.66,57.26 102.05,57.19 102.43,57.14 102.82,57.11 103.21,57.07 103.59,57.02 103.98,56.95 104.37,56.87 104.75,56.81 105.14,56.77 105.52,56.73 105.91,56.67 106.3,56.6 106.68,56.53 107.07,56.47 107.46,56.43 107.84,56.38 108.23,56.32 108.61,56.28 109,56.26 109.39,56.25 109.77,56.23 110.16,56.19 110.54,56.15 110.93,56.14 111.32,56.13 111.7,56.1 112.09,56.03 112.48,55.95 112.86,55.87 113.25,55.82 113.63,55.79 114.02,55.76 114.41,55.72 114.79,55.68 115.18,55.64 115.57,55.61 115.95,55.6 116.34,55.59 116.72,55.58 117.11,55.55 117.5,55.51 117.88,55.49 118.27,55.48 118.66,55.47 119.04,55.46 119.43,55.43 119.81,55.4 120.2,55.36 120.59,55.34 120.97,55.35 121.36,55.35 121.75,55.34 122.13,55.3 122.52,55.25 122.9,55.21 123.29,55.19 123.68,55.18 124.06,55.18 124.45,55.18 124.84,55.17 125.22,55.15 125.61,55.12 125.99,55.09 126.38,55.07 126.77,55.07 127.15,55.08 127.54,55.07 127.92,55.05 128.31,55.01 128.7,54.96 129.08,54.93 129.47,54.91 129.86,54.9 130.24,54.9 130.63,54.91 131.01,54.91 131.4,54.91 131.79,54.92 132.17,54.91 132.56,54.88 132.95,54.86 133.33,54.86 133.72,54.85 134.1,54.84 134.49,54.83 134.88,54.81 135.26,54.8 135.65,54.78 136.04,54.75 136.42,54.71 136.81,54.68 137.19,54.66 137.58,54.67 137.97,54.67 138.35,54.67 138.74,54.67 139.13,54.68 139.51,54.68 139.9,54.68 140.28,54.66 140.67,54.64 141.06,54.62 141.44,54.61 141.83,54.61 142.22,54.6 142.6,54.58 142.99,54.56 143.37,54.56 143.76,54.57 144.15,54.57 144.53,54.57 144.92,54.56 145.3,54.54 145.69,54.53 146.08,54.54 146.46,54.55 146.85,54.54 147.24,54.51 147.62,54.48 148.01,54.46 148.39,54.46 148.78,54.47 149.17,54.48 149.55,54.48 149.94,54.47 150.33,54.47 150.71,54.46 151.1,54.44 151.48,54.43 151.87,54.43 152.26,54.44 152.64,54.44 153.03,54.43 153.42,54.42 153.8,54.41 154.19,54.4 154.57,54.39 154.96,54.38 155.35,54.37 155.73,54.36 156.12,54.35 156.51,54.34 156.89,54.34 157.28,54.34 157.66,54.35 158.05,54.35 158.44,54.35 158.82,54.34 159.21,54.34 159.6,54.33 159.98,54.33 160.37,54.34 160.75,54.34 161.14,54.34 161.53,54.33 161.91,54.32 162.3,54.31 162.69,54.3 163.07,54.3 163.46,54.31 163.84,54.32 164.23,54.33 164.62,54.33 165,54.32 165.39,54.31 165.77,54.3 166.16,54.3 166.55,54.3 166.93,54.3 167.32,54.29 167.71,54.27 168.09,54.25 168.48,54.25 168.86,54.25 169.25,54.24 169.64,54.23 170.02,54.21 170.41,54.21 170.8,54.22 171.18,54.24 171.57,54.26 171.95,54.27 172.34,54.26 172.73,54.26 173.11,54.25 173.5,54.24 173.89,54.24 174.27,54.25 174.66,54.25 175.04,54.24 175.43,54.22 175.82,54.2 176.2,54.19 176.59,54.19 176.98,54.19 177.36,54.19 177.75,54.19 178.13,54.18 178.52,54.18 178.91,54.17 179.29,54.18 179.68,54.18 180.07,54.19 180.45,54.18 180.84,54.17 181.22,54.15 181.61,54.15 182,54.16 182.38,54.17 182.77,54.18 183.15,54.19 183.54,54.19 183.93,54.19 184.31,54.18 184.7,54.17 185.09,54.16 185.47,54.15 185.86,54.16 186.24,54.17 186.63,54.16 187.02,54.16 187.4,54.15 187.79,54.14 188.18,54.15 188.56,54.15 188.95,54.15 189.33,54.15 189.72,54.14 190.11,54.14 190.49,54.14 190.88,54.15 191.27,54.15 191.65,54.15 192.04,54.15 192.42,54.15 192.81,54.16 193.2,54.15 193.58,54.15 193.97,54.14 194.36,54.14 194.74,54.14 195.13,54.15 195.51,54.16 195.9,54.16 196.29,54.15 196.67,54.15 197.06,54.14 197.45,54.14 197.83,54.15 198.22,54.15 198.6,54.15 198.99,54.14 199.38,54.14 199.76,54.14 200.15,54.14 200.53,54.13 200.92,54.13 201.31,54.12 201.69,54.12 202.08,54.11 202.47,54.12 202.85,54.12 203.24,54.12 203.62,54.12 204.01,54.11 204.4,54.12 204.78,54.12 205.17,54.13 205.56,54.14 205.94,54.14 206.33,54.14 206.71,54.14 207.1,54.13 207.49,54.13 207.87,54.13 208.26,54.13 208.65,54.13 209.03,54.13 209.42,54.13 209.8,54.12 210.19,54.12 210.58,54.12 210.96,54.11 211.35,54.12 211.74,54.12 212.12,54.12 212.51,54.11 212.89,54.11 213.28,54.11 213.67,54.12 214.05,54.13 214.44,54.14 214.83,54.15 215.21,54.15 215.6,54.14 215.98,54.13 216.37,54.12 216.76,54.11 217.14,54.1 217.53,54.1 217.92,54.11 218.3,54.11 218.69,54.11 219.07,54.11 219.46,54.1 219.85,54.1 220.23,54.1 220.62,54.1 221,54.1 221.39,54.1 221.78,54.11 222.16,54.12 222.55,54.12 222.94,54.13 223.32,54.13 223.71,54.13 224.09,54.13 224.48,54.13 224.87,54.12 225.25,54.12 225.64,54.11 226.03,54.1 226.41,54.11 226.8,54.11 227.18,54.1 227.57,54.1 227.96,54.1 228.34,54.1 228.73,54.1 229.12,54.09 229.5,54.09 229.89,54.1 230.27,54.1 230.66,54.1 231.05,54.1 231.43,54.09 231.82,54.08 232.21,54.08 232.59,54.07 232.98,54.07 233.36,54.07 233.75,54.08 234.14,54.09 234.52,54.1 234.91,54.1 235.3,54.1 235.68,54.08 236.07,54.07 236.45,54.06 236.84,54.06 237.23,54.06 237.61,54.06 238,54.07 238.38,54.07 238.77,54.07 239.16,54.08 239.54,54.08 239.93,54.08 240.32,54.08 240.7,54.07 241.09,54.07 241.47,54.07 241.86,54.08 242.25,54.08 242.63,54.08 243.02,54.07 243.41,54.07 243.79,54.06 244.18,54.07 244.56,54.08 244.95,54.09 245.34,54.08 245.72,54.08 246.11,54.08 246.5,54.08 246.88,54.08 247.27,54.08 247.65,54.08 248.04,54.08 248.43,54.08 248.81,54.08 249.2,54.09 249.59,54.09 249.97,54.09 250.36,54.09 250.74,54.09 251.13,54.08 251.52,54.08 251.9,54.07 252.29,54.07 252.68,54.07 253.06,54.07 253.45,54.07 253.83,54.08 254.22,54.08 254.61,54.08 254.99,54.09 255.38,54.09 255.76,54.09 256.15,54.07 256.54,54.06 256.92,54.04 257.31,54.01 257.7,53.99 258.08,53.97 258.47,53.97 258.85,53.97" stroke-dasharray="none" stroke="rgb(31,120,180)" stroke-width="0.75" opacity="1" stroke-opacity="1" fill="none"/>
          </g>
          <g id="Fig:densplot_01.xyplot.lines.group.6.panel.1.1.1">
            <polyline id="Fig:densplot_01.xyplot.lines.group.6.panel.1.1.1.1" points="60.81,53.98 61.2,54.03 61.59,54.18 61.98,54.6 62.37,55.63 62.76,57.82 63.15,61.9 63.54,68.54 63.93,78.02 64.32,89.88 64.71,102.89 65.1,115.33 65.49,125.56 65.88,132.55 66.27,136.07 66.66,136.61 67.05,134.95 67.44,131.95 67.83,128.25 68.22,124.31 68.61,120.41 69,116.7 69.39,113.22 69.78,109.99 70.17,106.97 70.56,104.13 70.95,101.48 71.34,98.99 71.73,96.69 72.12,94.59 72.51,92.67 72.9,90.94 73.29,89.38 73.68,87.96 74.07,86.65 74.46,85.41 74.85,84.22 75.24,83.07 75.63,81.98 76.02,80.95 76.41,79.98 76.8,79.08 77.19,78.22 77.58,77.41 77.97,76.63 78.36,75.86 78.75,75.13 79.14,74.42 79.53,73.76 79.92,73.13 80.31,72.54 80.71,72 81.1,71.47 81.49,70.97 81.88,70.47 82.27,69.98 82.66,69.51 83.05,69.07 83.44,68.65 83.83,68.25 84.22,67.87 84.61,67.49 85,67.11 85.39,66.73 85.78,66.37 86.17,66.04 86.56,65.73 86.95,65.45 87.34,65.19 87.73,64.94 88.12,64.69 88.51,64.45 88.9,64.21 89.29,63.97 89.68,63.73 90.07,63.51 90.46,63.3 90.85,63.11 91.24,62.92 91.63,62.73 92.02,62.54 92.41,62.35 92.8,62.15 93.19,61.98 93.58,61.82 93.97,61.68 94.36,61.57 94.75,61.46 95.14,61.34 95.53,61.22 95.92,61.08 96.31,60.95 96.7,60.82 97.09,60.7 97.48,60.6 97.87,60.52 98.26,60.43 98.65,60.35 99.04,60.25 99.43,60.14 99.82,60.02 100.21,59.89 100.6,59.76 100.99,59.64 101.38,59.53 101.77,59.43 102.16,59.34 102.55,59.25 102.94,59.16 103.33,59.06 103.72,58.97 104.11,58.9 104.5,58.83 104.89,58.77 105.28,58.7 105.67,58.62 106.06,58.54 106.45,58.47 106.84,58.4 107.24,58.34 107.63,58.28 108.02,58.23 108.41,58.18 108.8,58.12 109.19,58.05 109.58,57.98 109.97,57.91 110.36,57.83 110.75,57.76 111.14,57.69 111.53,57.63 111.92,57.57 112.31,57.52 112.7,57.48 113.09,57.45 113.48,57.42 113.87,57.39 114.26,57.36 114.65,57.32 115.04,57.27 115.43,57.22 115.82,57.16 116.21,57.11 116.6,57.06 116.99,57.02 117.38,57 117.77,56.98 118.16,56.97 118.55,56.95 118.94,56.91 119.33,56.87 119.72,56.82 120.11,56.77 120.5,56.72 120.89,56.68 121.28,56.64 121.67,56.61 122.06,56.58 122.45,56.56 122.84,56.54 123.23,56.52 123.62,56.51 124.01,56.5 124.4,56.49 124.79,56.47 125.18,56.45 125.57,56.42 125.96,56.38 126.35,56.33 126.74,56.29 127.13,56.24 127.52,56.21 127.91,56.18 128.3,56.16 128.69,56.13 129.08,56.11 129.47,56.08 129.86,56.06 130.25,56.04 130.64,56.02 131.03,56 131.42,55.97 131.81,55.94 132.2,55.9 132.59,55.87 132.98,55.84 133.37,55.81 133.76,55.79 134.16,55.78 134.55,55.76 134.94,55.75 135.33,55.73 135.72,55.71 136.11,55.69 136.5,55.68 136.89,55.67 137.28,55.67 137.67,55.66 138.06,55.66 138.45,55.65 138.84,55.64 139.23,55.63 139.62,55.61 140.01,55.59 140.4,55.57 140.79,55.55 141.18,55.54 141.57,55.53 141.96,55.52 142.35,55.5 142.74,55.48 143.13,55.46 143.52,55.45 143.91,55.43 144.3,55.43 144.69,55.41 145.08,55.4 145.47,55.38 145.86,55.36 146.25,55.34 146.64,55.32 147.03,55.31 147.42,55.3 147.81,55.3 148.2,55.29 148.59,55.27 148.98,55.26 149.37,55.24 149.76,55.23 150.15,55.2 150.54,55.18 150.93,55.15 151.32,55.13 151.71,55.12 152.1,55.11 152.49,55.12 152.88,55.13 153.27,55.13 153.66,55.14 154.05,55.13 154.44,55.13 154.83,55.12 155.22,55.1 155.61,55.08 156,55.06 156.39,55.03 156.78,55.01 157.17,55 157.56,54.99 157.95,54.99 158.34,54.99 158.73,54.99 159.12,54.98 159.51,54.98 159.9,54.97 160.29,54.95 160.68,54.94 161.08,54.93 161.47,54.93 161.86,54.93 162.25,54.93 162.64,54.93 163.03,54.93 163.42,54.92 163.81,54.91 164.2,54.9 164.59,54.89 164.98,54.89 165.37,54.89 165.76,54.88 166.15,54.88 166.54,54.87 166.93,54.86 167.32,54.85 167.71,54.84 168.1,54.83 168.49,54.82 168.88,54.81 169.27,54.8 169.66,54.79 170.05,54.78 170.44,54.78 170.83,54.77 171.22,54.76 171.61,54.75 172,54.74 172.39,54.74 172.78,54.73 173.17,54.73 173.56,54.73 173.95,54.73 174.34,54.73 174.73,54.72 175.12,54.72 175.51,54.71 175.9,54.71 176.29,54.71 176.68,54.71 177.07,54.71 177.46,54.71 177.85,54.71 178.24,54.71 178.63,54.7 179.02,54.68 179.41,54.67 179.8,54.66 180.19,54.65 180.58,54.65 180.97,54.64 181.36,54.63 181.75,54.62 182.14,54.6 182.53,54.59 182.92,54.58 183.31,54.57 183.7,54.57 184.09,54.56 184.48,54.56 184.87,54.56 185.26,54.56 185.65,54.55 186.04,54.54 186.43,54.53 186.82,54.53 187.21,54.52 187.61,54.53 188,54.53 188.39,54.53 188.78,54.54 189.17,54.54 189.56,54.54 189.95,54.53 190.34,54.53 190.73,54.52 191.12,54.51 191.51,54.51 191.9,54.5 192.29,54.5 192.68,54.49 193.07,54.49 193.46,54.49 193.85,54.49 194.24,54.48 194.63,54.47 195.02,54.45 195.41,54.44 195.8,54.44 196.19,54.43 196.58,54.43 196.97,54.43 197.36,54.44 197.75,54.44 198.14,54.45 198.53,54.45 198.92,54.45 199.31,54.46 199.7,54.45 200.09,54.45 200.48,54.44 200.87,54.43 201.26,54.42 201.65,54.41 202.04,54.41 202.43,54.41 202.82,54.41 203.21,54.41 203.6,54.42 203.99,54.42 204.38,54.42 204.77,54.41 205.16,54.41 205.55,54.4 205.94,54.4 206.33,54.39 206.72,54.38 207.11,54.38 207.5,54.38 207.89,54.39 208.28,54.39 208.67,54.4 209.06,54.4 209.45,54.39 209.84,54.39 210.23,54.37 210.62,54.36 211.01,54.35 211.4,54.35 211.79,54.34 212.18,54.34 212.57,54.33 212.96,54.33 213.35,54.33 213.74,54.33 214.13,54.33 214.53,54.33 214.92,54.33 215.31,54.33 215.7,54.33 216.09,54.33 216.48,54.32 216.87,54.32 217.26,54.32 217.65,54.32 218.04,54.32 218.43,54.32 218.82,54.32 219.21,54.31 219.6,54.31 219.99,54.31 220.38,54.31 220.77,54.31 221.16,54.3 221.55,54.3 221.94,54.29 222.33,54.29 222.72,54.28 223.11,54.28 223.5,54.27 223.89,54.27 224.28,54.27 224.67,54.27 225.06,54.27 225.45,54.27 225.84,54.28 226.23,54.28 226.62,54.29 227.01,54.3 227.4,54.3 227.79,54.31 228.18,54.32 228.57,54.32 228.96,54.32 229.35,54.32 229.74,54.31 230.13,54.3 230.52,54.29 230.91,54.28 231.3,54.27 231.69,54.26 232.08,54.26 232.47,54.26 232.86,54.25 233.25,54.25 233.64,54.25 234.03,54.25 234.42,54.25 234.81,54.24 235.2,54.24 235.59,54.24 235.98,54.24 236.37,54.24 236.76,54.24 237.15,54.23 237.54,54.23 237.93,54.23 238.32,54.23 238.71,54.23 239.1,54.24 239.49,54.24 239.88,54.25 240.27,54.25 240.66,54.25 241.05,54.25 241.45,54.25 241.84,54.25 242.23,54.24 242.62,54.24 243.01,54.23 243.4,54.22 243.79,54.22 244.18,54.21 244.57,54.21 244.96,54.21 245.35,54.21 245.74,54.21 246.13,54.21 246.52,54.21 246.91,54.22 247.3,54.22 247.69,54.22 248.08,54.21 248.47,54.21 248.86,54.2 249.25,54.2 249.64,54.19 250.03,54.19 250.42,54.19 250.81,54.2 251.2,54.2 251.59,54.2 251.98,54.2 252.37,54.21 252.76,54.21 253.15,54.21 253.54,54.21 253.93,54.22 254.32,54.21 254.71,54.21 255.1,54.21 255.49,54.2 255.88,54.18 256.27,54.15 256.66,54.12 257.05,54.09 257.44,54.05 257.83,54.02 258.22,54 258.61,53.98 259,53.97 259.39,53.97 259.78,53.97 260.17,53.97" stroke-dasharray="none" stroke="rgb(31,120,180)" stroke-width="0.75" opacity="1" stroke-opacity="1" fill="none"/>
          </g>
          <g id="Fig:densplot_01.xyplot.lines.group.7.panel.1.1.1">
            <polyline id="Fig:densplot_01.xyplot.lines.group.7.panel.1.1.1.1" points="59.55,53.97 59.94,53.98 60.34,54 60.74,54.04 61.13,54.13 61.53,54.32 61.92,54.67 62.32,55.3 62.71,56.34 63.11,57.95 63.5,60.29 63.9,63.47 64.29,67.55 64.69,72.44 65.08,77.96 65.48,83.79 65.87,89.55 66.27,94.88 66.67,99.43 67.06,103 67.46,105.46 67.85,106.88 68.25,107.43 68.64,107.27 69.04,106.59 69.43,105.55 69.83,104.27 70.22,102.85 70.62,101.36 71.01,99.85 71.41,98.33 71.8,96.82 72.2,95.34 72.59,93.89 72.99,92.49 73.39,91.13 73.78,89.82 74.18,88.58 74.57,87.4 74.97,86.29 75.36,85.26 75.76,84.29 76.15,83.37 76.55,82.5 76.94,81.67 77.34,80.87 77.73,80.1 78.13,79.34 78.52,78.6 78.92,77.88 79.31,77.18 79.71,76.5 80.11,75.84 80.5,75.21 80.9,74.61 81.29,74.03 81.69,73.49 82.08,72.97 82.48,72.49 82.87,72.03 83.27,71.59 83.66,71.18 84.06,70.78 84.45,70.4 84.85,70.02 85.24,69.65 85.64,69.29 86.03,68.95 86.43,68.61 86.83,68.29 87.22,67.98 87.62,67.68 88.01,67.39 88.41,67.11 88.8,66.84 89.2,66.57 89.59,66.31 89.99,66.06 90.38,65.82 90.78,65.59 91.17,65.37 91.57,65.17 91.96,64.97 92.36,64.78 92.75,64.6 93.15,64.42 93.55,64.25 93.94,64.08 94.34,63.91 94.73,63.75 95.13,63.58 95.52,63.41 95.92,63.24 96.31,63.07 96.71,62.9 97.1,62.74 97.5,62.58 97.89,62.42 98.29,62.27 98.68,62.12 99.08,61.99 99.47,61.87 99.87,61.75 100.27,61.64 100.66,61.54 101.06,61.43 101.45,61.33 101.85,61.23 102.24,61.13 102.64,61.02 103.03,60.91 103.43,60.8 103.82,60.69 104.22,60.59 104.61,60.49 105.01,60.4 105.4,60.32 105.8,60.24 106.19,60.17 106.59,60.1 106.99,60.03 107.38,59.96 107.78,59.89 108.17,59.82 108.57,59.75 108.96,59.67 109.36,59.59 109.75,59.51 110.15,59.42 110.54,59.34 110.94,59.26 111.33,59.18 111.73,59.11 112.12,59.04 112.52,58.97 112.91,58.91 113.31,58.85 113.71,58.8 114.1,58.74 114.5,58.69 114.89,58.63 115.29,58.58 115.68,58.53 116.08,58.48 116.47,58.43 116.87,58.38 117.26,58.33 117.66,58.28 118.05,58.22 118.45,58.16 118.84,58.11 119.24,58.06 119.63,58.01 120.03,57.96 120.43,57.92 120.82,57.88 121.22,57.84 121.61,57.8 122.01,57.77 122.4,57.73 122.8,57.7 123.19,57.66 123.59,57.63 123.98,57.6 124.38,57.57 124.77,57.54 125.17,57.51 125.56,57.48 125.96,57.45 126.35,57.42 126.75,57.39 127.15,57.36 127.54,57.32 127.94,57.27 128.33,57.23 128.73,57.18 129.12,57.14 129.52,57.1 129.91,57.06 130.31,57.02 130.7,56.99 131.1,56.96 131.49,56.93 131.89,56.89 132.28,56.86 132.68,56.82 133.07,56.78 133.47,56.74 133.87,56.7 134.26,56.67 134.66,56.64 135.05,56.62 135.45,56.6 135.84,56.58 136.24,56.57 136.63,56.56 137.03,56.54 137.42,56.52 137.82,56.5 138.21,56.48 138.61,56.46 139,56.43 139.4,56.41 139.79,56.38 140.19,56.36 140.59,56.34 140.98,56.32 141.38,56.31 141.77,56.29 142.17,56.28 142.56,56.26 142.96,56.25 143.35,56.23 143.75,56.21 144.14,56.2 144.54,56.17 144.93,56.15 145.33,56.13 145.72,56.11 146.12,56.09 146.51,56.07 146.91,56.05 147.31,56.03 147.7,56.01 148.1,55.99 148.49,55.96 148.89,55.94 149.28,55.92 149.68,55.9 150.07,55.88 150.47,55.86 150.86,55.85 151.26,55.83 151.65,55.82 152.05,55.81 152.44,55.8 152.84,55.78 153.23,55.77 153.63,55.76 154.03,55.75 154.42,55.74 154.82,55.73 155.21,55.72 155.61,55.71 156,55.7 156.4,55.69 156.79,55.67 157.19,55.66 157.58,55.64 157.98,55.62 158.37,55.61 158.77,55.59 159.16,55.57 159.56,55.56 159.96,55.54 160.35,55.52 160.75,55.51 161.14,55.49 161.54,55.48 161.93,55.47 162.33,55.46 162.72,55.45 163.12,55.43 163.51,55.42 163.91,55.41 164.3,55.4 164.7,55.39 165.09,55.38 165.49,55.37 165.88,55.36 166.28,55.36 166.68,55.35 167.07,55.34 167.47,55.33 167.86,55.31 168.26,55.3 168.65,55.29 169.05,55.28 169.44,55.27 169.84,55.27 170.23,55.26 170.63,55.26 171.02,55.25 171.42,55.25 171.81,55.24 172.21,55.22 172.6,55.21 173,55.19 173.4,55.18 173.79,55.17 174.19,55.16 174.58,55.15 174.98,55.15 175.37,55.14 175.77,55.14 176.16,55.14 176.56,55.14 176.95,55.14 177.35,55.14 177.74,55.14 178.14,55.14 178.53,55.13 178.93,55.12 179.32,55.11 179.72,55.11 180.12,55.09 180.51,55.08 180.91,55.07 181.3,55.06 181.7,55.05 182.09,55.04 182.49,55.03 182.88,55.03 183.28,55.02 183.67,55.01 184.07,55 184.46,55 184.86,54.99 185.25,54.98 185.65,54.97 186.04,54.96 186.44,54.96 186.84,54.95 187.23,54.94 187.63,54.94 188.02,54.94 188.42,54.94 188.81,54.94 189.21,54.94 189.6,54.94 190,54.94 190.39,54.94 190.79,54.94 191.18,54.93 191.58,54.92 191.97,54.91 192.37,54.9 192.76,54.89 193.16,54.87 193.56,54.86 193.95,54.84 194.35,54.83 194.74,54.82 195.14,54.81 195.53,54.81 195.93,54.8 196.32,54.79 196.72,54.79 197.11,54.78 197.51,54.78 197.9,54.77 198.3,54.77 198.69,54.76 199.09,54.76 199.48,54.75 199.88,54.74 200.28,54.73 200.67,54.73 201.07,54.72 201.46,54.72 201.86,54.72 202.25,54.72 202.65,54.72 203.04,54.71 203.44,54.71 203.83,54.71 204.23,54.7 204.62,54.7 205.02,54.7 205.41,54.7 205.81,54.69 206.2,54.69 206.6,54.69 207,54.69 207.39,54.69 207.79,54.68 208.18,54.68 208.58,54.67 208.97,54.66 209.37,54.66 209.76,54.65 210.16,54.65 210.55,54.64 210.95,54.64 211.34,54.63 211.74,54.63 212.13,54.63 212.53,54.62 212.92,54.62 213.32,54.62 213.72,54.61 214.11,54.61 214.51,54.61 214.9,54.6 215.3,54.6 215.69,54.6 216.09,54.6 216.48,54.59 216.88,54.59 217.27,54.59 217.67,54.59 218.06,54.59 218.46,54.58 218.85,54.58 219.25,54.58 219.64,54.57 220.04,54.57 220.44,54.56 220.83,54.56 221.23,54.56 221.62,54.56 222.02,54.56 222.41,54.56 222.81,54.56 223.2,54.55 223.6,54.55 223.99,54.55 224.39,54.54 224.78,54.54 225.18,54.54 225.57,54.53 225.97,54.53 226.36,54.53 226.76,54.53 227.16,54.53 227.55,54.52 227.95,54.52 228.34,54.51 228.74,54.51 229.13,54.5 229.53,54.5 229.92,54.49 230.32,54.48 230.71,54.48 231.11,54.47 231.5,54.46 231.9,54.46 232.29,54.46 232.69,54.45 233.08,54.45 233.48,54.45 233.88,54.45 234.27,54.44 234.67,54.44 235.06,54.43 235.46,54.42 235.85,54.42 236.25,54.41 236.64,54.41 237.04,54.41 237.43,54.41 237.83,54.42 238.22,54.42 238.62,54.42 239.01,54.42 239.41,54.42 239.8,54.42 240.2,54.41 240.6,54.41 240.99,54.41 241.39,54.41 241.78,54.41 242.18,54.41 242.57,54.41 242.97,54.41 243.36,54.41 243.76,54.4 244.15,54.4 244.55,54.4 244.94,54.4 245.34,54.39 245.73,54.39 246.13,54.39 246.52,54.38 246.92,54.38 247.32,54.38 247.71,54.38 248.11,54.38 248.5,54.38 248.9,54.38 249.29,54.38 249.69,54.37 250.08,54.37 250.48,54.37 250.87,54.37 251.27,54.36 251.66,54.36 252.06,54.35 252.45,54.35 252.85,54.35 253.25,54.34 253.64,54.34 254.04,54.33 254.43,54.32 254.83,54.31 255.22,54.3 255.62,54.28 256.01,54.25 256.41,54.22 256.8,54.18 257.2,54.14 257.59,54.11 257.99,54.07 258.38,54.04 258.78,54.02 259.17,54 259.57,53.99 259.97,53.98 260.36,53.97 260.76,53.97 261.15,53.97 261.55,53.97" stroke-dasharray="none" stroke="rgb(31,120,180)" stroke-width="0.75" opacity="1" stroke-opacity="1" fill="none"/>
          </g>
          <g id="Fig:densplot_01.xyplot.lines.group.8.panel.1.1.1">
            <polyline id="Fig:densplot_01.xyplot.lines.group.8.panel.1.1.1.1" points="60.53,53.98 60.92,54.04 61.31,54.26 61.7,54.99 62.09,56.99 62.48,61.57 62.87,70.38 63.26,84.61 63.65,103.82 64.04,125.33 64.43,144.91 64.82,158.65 65.21,164.74 65.6,163.91 65.99,158.43 66.38,150.72 66.77,142.52 67.16,134.77 67.55,127.83 67.94,121.77 68.33,116.49 68.72,111.87 69.11,107.83 69.5,104.28 69.89,101.19 70.28,98.49 70.67,96.09 71.06,93.91 71.45,91.87 71.84,89.93 72.23,88.1 72.62,86.4 73.01,84.86 73.4,83.47 73.79,82.2 74.18,81.02 74.57,79.91 74.96,78.85 75.35,77.84 75.74,76.88 76.13,75.98 76.52,75.13 76.91,74.35 77.3,73.63 77.69,72.97 78.07,72.35 78.46,71.75 78.85,71.17 79.24,70.6 79.63,70.07 80.02,69.57 80.41,69.1 80.8,68.64 81.19,68.2 81.58,67.78 81.97,67.38 82.36,66.99 82.75,66.61 83.14,66.25 83.53,65.91 83.92,65.6 84.31,65.31 84.7,65.03 85.09,64.74 85.48,64.45 85.87,64.17 86.26,63.89 86.65,63.63 87.04,63.38 87.43,63.15 87.82,62.94 88.21,62.74 88.6,62.57 88.99,62.4 89.38,62.24 89.77,62.07 90.16,61.91 90.55,61.73 90.94,61.54 91.33,61.36 91.72,61.19 92.11,61.04 92.5,60.91 92.89,60.8 93.28,60.7 93.67,60.59 94.06,60.49 94.45,60.38 94.84,60.27 95.23,60.16 95.62,60.06 96.01,59.96 96.4,59.86 96.79,59.75 97.18,59.65 97.57,59.54 97.96,59.43 98.35,59.31 98.74,59.18 99.13,59.05 99.52,58.93 99.91,58.82 100.3,58.73 100.69,58.67 101.08,58.62 101.47,58.59 101.86,58.56 102.25,58.53 102.64,58.48 103.03,58.41 103.42,58.32 103.81,58.23 104.2,58.16 104.59,58.09 104.98,58.03 105.37,57.95 105.76,57.86 106.15,57.77 106.54,57.68 106.92,57.6 107.31,57.55 107.7,57.5 108.09,57.48 108.48,57.46 108.87,57.44 109.26,57.43 109.65,57.41 110.04,57.38 110.43,57.33 110.82,57.28 111.21,57.22 111.6,57.16 111.99,57.09 112.38,57.03 112.77,56.97 113.16,56.94 113.55,56.91 113.94,56.89 114.33,56.86 114.72,56.81 115.11,56.76 115.5,56.7 115.89,56.66 116.28,56.62 116.67,56.59 117.06,56.56 117.45,56.53 117.84,56.51 118.23,56.48 118.62,56.44 119.01,56.41 119.4,56.37 119.79,56.33 120.18,56.3 120.57,56.27 120.96,56.24 121.35,56.22 121.74,56.19 122.13,56.17 122.52,56.14 122.91,56.11 123.3,56.08 123.69,56.03 124.08,55.99 124.47,55.97 124.86,55.95 125.25,55.95 125.64,55.96 126.03,55.96 126.42,55.96 126.81,55.94 127.2,55.91 127.59,55.87 127.98,55.82 128.37,55.78 128.76,55.75 129.15,55.74 129.54,55.74 129.93,55.74 130.32,55.74 130.71,55.72 131.1,55.69 131.49,55.66 131.88,55.62 132.27,55.59 132.66,55.57 133.05,55.55 133.44,55.54 133.83,55.53 134.22,55.52 134.61,55.51 135,55.48 135.39,55.45 135.77,55.41 136.16,55.38 136.55,55.35 136.94,55.34 137.33,55.33 137.72,55.33 138.11,55.32 138.5,55.32 138.89,55.31 139.28,55.29 139.67,55.27 140.06,55.25 140.45,55.23 140.84,55.21 141.23,55.2 141.62,55.18 142.01,55.17 142.4,55.16 142.79,55.15 143.18,55.15 143.57,55.15 143.96,55.15 144.35,55.15 144.74,55.16 145.13,55.15 145.52,55.14 145.91,55.12 146.3,55.1 146.69,55.09 147.08,55.07 147.47,55.06 147.86,55.06 148.25,55.05 148.64,55.05 149.03,55.05 149.42,55.05 149.81,55.03 150.2,55.01 150.59,54.99 150.98,54.97 151.37,54.95 151.76,54.95 152.15,54.95 152.54,54.95 152.93,54.94 153.32,54.93 153.71,54.92 154.1,54.91 154.49,54.91 154.88,54.91 155.27,54.92 155.66,54.92 156.05,54.92 156.44,54.91 156.83,54.91 157.22,54.9 157.61,54.89 158,54.89 158.39,54.89 158.78,54.89 159.17,54.88 159.56,54.86 159.95,54.84 160.34,54.83 160.73,54.82 161.12,54.82 161.51,54.83 161.9,54.83 162.29,54.82 162.68,54.81 163.07,54.8 163.46,54.8 163.85,54.8 164.23,54.8 164.62,54.79 165.01,54.77 165.4,54.75 165.79,54.73 166.18,54.72 166.57,54.71 166.96,54.7 167.35,54.7 167.74,54.69 168.13,54.69 168.52,54.68 168.91,54.68 169.3,54.68 169.69,54.67 170.08,54.66 170.47,54.64 170.86,54.63 171.25,54.62 171.64,54.62 172.03,54.62 172.42,54.63 172.81,54.63 173.2,54.64 173.59,54.64 173.98,54.64 174.37,54.63 174.76,54.62 175.15,54.6 175.54,54.59 175.93,54.57 176.32,54.55 176.71,54.54 177.1,54.53 177.49,54.52 177.88,54.52 178.27,54.52 178.66,54.52 179.05,54.51 179.44,54.5 179.83,54.5 180.22,54.5 180.61,54.51 181,54.52 181.39,54.53 181.78,54.54 182.17,54.54 182.56,54.53 182.95,54.52 183.34,54.51 183.73,54.49 184.12,54.48 184.51,54.46 184.9,54.45 185.29,54.44 185.68,54.44 186.07,54.44 186.46,54.43 186.85,54.44 187.24,54.44 187.63,54.45 188.02,54.45 188.41,54.46 188.8,54.46 189.19,54.46 189.58,54.46 189.97,54.45 190.36,54.45 190.75,54.44 191.14,54.44 191.53,54.43 191.92,54.43 192.31,54.43 192.7,54.43 193.08,54.43 193.47,54.43 193.86,54.43 194.25,54.42 194.64,54.42 195.03,54.41 195.42,54.4 195.81,54.39 196.2,54.39 196.59,54.39 196.98,54.38 197.37,54.38 197.76,54.37 198.15,54.37 198.54,54.37 198.93,54.38 199.32,54.38 199.71,54.38 200.1,54.38 200.49,54.37 200.88,54.36 201.27,54.35 201.66,54.35 202.05,54.34 202.44,54.34 202.83,54.34 203.22,54.34 203.61,54.34 204,54.34 204.39,54.34 204.78,54.34 205.17,54.33 205.56,54.32 205.95,54.31 206.34,54.3 206.73,54.3 207.12,54.31 207.51,54.31 207.9,54.32 208.29,54.33 208.68,54.33 209.07,54.34 209.46,54.34 209.85,54.33 210.24,54.32 210.63,54.31 211.02,54.31 211.41,54.31 211.8,54.31 212.19,54.31 212.58,54.31 212.97,54.31 213.36,54.3 213.75,54.3 214.14,54.29 214.53,54.28 214.92,54.27 215.31,54.26 215.7,54.27 216.09,54.28 216.48,54.29 216.87,54.3 217.26,54.31 217.65,54.31 218.04,54.31 218.43,54.3 218.82,54.29 219.21,54.29 219.6,54.28 219.99,54.28 220.38,54.28 220.77,54.27 221.16,54.27 221.55,54.26 221.93,54.26 222.32,54.26 222.71,54.26 223.1,54.27 223.49,54.27 223.88,54.27 224.27,54.27 224.66,54.27 225.05,54.27 225.44,54.26 225.83,54.26 226.22,54.26 226.61,54.26 227,54.26 227.39,54.27 227.78,54.27 228.17,54.28 228.56,54.29 228.95,54.29 229.34,54.28 229.73,54.27 230.12,54.26 230.51,54.25 230.9,54.24 231.29,54.23 231.68,54.23 232.07,54.23 232.46,54.22 232.85,54.22 233.24,54.22 233.63,54.22 234.02,54.21 234.41,54.21 234.8,54.21 235.19,54.21 235.58,54.2 235.97,54.2 236.36,54.2 236.75,54.2 237.14,54.2 237.53,54.2 237.92,54.2 238.31,54.2 238.7,54.21 239.09,54.21 239.48,54.22 239.87,54.22 240.26,54.21 240.65,54.21 241.04,54.21 241.43,54.2 241.82,54.2 242.21,54.19 242.6,54.19 242.99,54.19 243.38,54.19 243.77,54.19 244.16,54.19 244.55,54.19 244.94,54.19 245.33,54.19 245.72,54.19 246.11,54.18 246.5,54.18 246.89,54.18 247.28,54.18 247.67,54.18 248.06,54.18 248.45,54.18 248.84,54.19 249.23,54.19 249.62,54.19 250.01,54.19 250.39,54.19 250.78,54.19 251.17,54.19 251.56,54.19 251.95,54.2 252.34,54.2 252.73,54.2 253.12,54.2 253.51,54.19 253.9,54.18 254.29,54.18 254.68,54.17 255.07,54.16 255.46,54.15 255.85,54.14 256.24,54.13 256.63,54.1 257.02,54.07 257.41,54.04 257.8,54.01 258.19,53.99 258.58,53.98 258.97,53.97 259.36,53.97 259.75,53.97" stroke-dasharray="none" stroke="rgb(31,120,180)" stroke-width="0.75" opacity="1" stroke-opacity="1" fill="none"/>
          </g>
          <g id="Fig:densplot_01.xyplot.lines.group.9.panel.1.1.1">
            <polyline id="Fig:densplot_01.xyplot.lines.group.9.panel.1.1.1.1" points="60.94,53.98 61.33,54.03 61.72,54.26 62.11,55.11 62.5,57.61 62.89,63.56 63.28,74.98 63.66,92.76 64.05,115.16 64.44,137.79 64.83,155.62 65.22,165.54 65.61,167.47 66,163.56 66.38,156.54 66.77,148.51 67.16,140.67 67.55,133.48 67.94,127.06 68.33,121.36 68.72,116.32 69.1,111.87 69.49,107.94 69.88,104.47 70.27,101.4 70.66,98.69 71.05,96.27 71.44,94.09 71.82,92.1 72.21,90.25 72.6,88.54 72.99,86.94 73.38,85.45 73.77,84.04 74.16,82.7 74.54,81.44 74.93,80.28 75.32,79.2 75.71,78.21 76.1,77.27 76.49,76.38 76.88,75.53 77.26,74.72 77.65,73.95 78.04,73.2 78.43,72.51 78.82,71.88 79.21,71.29 79.6,70.72 79.98,70.13 80.37,69.53 80.76,68.95 81.15,68.44 81.54,67.99 81.93,67.58 82.32,67.2 82.7,66.83 83.09,66.48 83.48,66.14 83.87,65.8 84.26,65.46 84.65,65.12 85.04,64.81 85.42,64.54 85.81,64.28 86.2,64.02 86.59,63.74 86.98,63.46 87.37,63.19 87.76,62.94 88.14,62.73 88.53,62.55 88.92,62.4 89.31,62.25 89.7,62.08 90.09,61.89 90.48,61.68 90.86,61.47 91.25,61.28 91.64,61.12 92.03,60.99 92.42,60.86 92.81,60.72 93.2,60.58 93.59,60.44 93.97,60.3 94.36,60.18 94.75,60.07 95.14,59.96 95.53,59.83 95.92,59.7 96.31,59.56 96.69,59.42 97.08,59.29 97.47,59.19 97.86,59.11 98.25,59.05 98.64,58.99 99.03,58.91 99.41,58.82 99.8,58.71 100.19,58.6 100.58,58.49 100.97,58.38 101.36,58.3 101.75,58.24 102.13,58.2 102.52,58.18 102.91,58.15 103.3,58.09 103.69,58.01 104.08,57.92 104.47,57.85 104.85,57.79 105.24,57.73 105.63,57.67 106.02,57.61 106.41,57.55 106.8,57.49 107.19,57.45 107.57,57.41 107.96,57.36 108.35,57.29 108.74,57.21 109.13,57.12 109.52,57.04 109.91,56.98 110.29,56.94 110.68,56.91 111.07,56.91 111.46,56.92 111.85,56.92 112.24,56.9 112.63,56.86 113.01,56.8 113.4,56.76 113.79,56.72 114.18,56.69 114.57,56.64 114.96,56.59 115.35,56.52 115.73,56.46 116.12,56.41 116.51,56.38 116.9,56.36 117.29,56.35 117.68,56.33 118.07,56.31 118.45,56.28 118.84,56.26 119.23,56.25 119.62,56.22 120.01,56.19 120.4,56.15 120.79,56.11 121.17,56.08 121.56,56.06 121.95,56.03 122.34,56 122.73,55.95 123.12,55.91 123.51,55.89 123.89,55.87 124.28,55.86 124.67,55.84 125.06,55.82 125.45,55.8 125.84,55.79 126.23,55.78 126.61,55.77 127,55.76 127.39,55.74 127.78,55.71 128.17,55.68 128.56,55.65 128.95,55.61 129.34,55.58 129.72,55.55 130.11,55.53 130.5,55.52 130.89,55.5 131.28,55.49 131.67,55.46 132.06,55.44 132.44,55.42 132.83,55.41 133.22,55.41 133.61,55.39 134,55.37 134.39,55.34 134.78,55.3 135.16,55.26 135.55,55.24 135.94,55.23 136.33,55.23 136.72,55.23 137.11,55.23 137.5,55.23 137.88,55.23 138.27,55.23 138.66,55.21 139.05,55.2 139.44,55.18 139.83,55.17 140.22,55.16 140.6,55.16 140.99,55.16 141.38,55.15 141.77,55.14 142.16,55.13 142.55,55.1 142.94,55.08 143.32,55.06 143.71,55.05 144.1,55.04 144.49,55.04 144.88,55.03 145.27,55.03 145.66,55.01 146.04,54.99 146.43,54.97 146.82,54.95 147.21,54.94 147.6,54.93 147.99,54.93 148.38,54.93 148.76,54.93 149.15,54.92 149.54,54.92 149.93,54.91 150.32,54.9 150.71,54.89 151.1,54.88 151.48,54.88 151.87,54.89 152.26,54.91 152.65,54.93 153.04,54.93 153.43,54.92 153.82,54.9 154.2,54.88 154.59,54.85 154.98,54.82 155.37,54.81 155.76,54.8 156.15,54.79 156.54,54.79 156.92,54.78 157.31,54.78 157.7,54.77 158.09,54.76 158.48,54.76 158.87,54.75 159.26,54.74 159.64,54.74 160.03,54.73 160.42,54.72 160.81,54.71 161.2,54.71 161.59,54.7 161.98,54.7 162.36,54.7 162.75,54.69 163.14,54.69 163.53,54.69 163.92,54.69 164.31,54.68 164.7,54.67 165.09,54.66 165.47,54.64 165.86,54.61 166.25,54.58 166.64,54.56 167.03,54.55 167.42,54.54 167.81,54.54 168.19,54.54 168.58,54.54 168.97,54.55 169.36,54.54 169.75,54.53 170.14,54.52 170.53,54.52 170.91,54.53 171.3,54.55 171.69,54.56 172.08,54.57 172.47,54.57 172.86,54.57 173.25,54.56 173.63,54.56 174.02,54.55 174.41,54.55 174.8,54.53 175.19,54.52 175.58,54.51 175.97,54.51 176.35,54.51 176.74,54.52 177.13,54.53 177.52,54.53 177.91,54.54 178.3,54.53 178.69,54.52 179.07,54.51 179.46,54.5 179.85,54.49 180.24,54.48 180.63,54.48 181.02,54.47 181.41,54.47 181.79,54.47 182.18,54.47 182.57,54.46 182.96,54.45 183.35,54.44 183.74,54.43 184.13,54.43 184.51,54.42 184.9,54.42 185.29,54.42 185.68,54.42 186.07,54.42 186.46,54.41 186.85,54.4 187.23,54.4 187.62,54.4 188.01,54.4 188.4,54.41 188.79,54.41 189.18,54.4 189.57,54.39 189.95,54.39 190.34,54.39 190.73,54.39 191.12,54.39 191.51,54.4 191.9,54.4 192.29,54.4 192.67,54.39 193.06,54.38 193.45,54.37 193.84,54.35 194.23,54.35 194.62,54.34 195.01,54.34 195.39,54.34 195.78,54.34 196.17,54.34 196.56,54.34 196.95,54.35 197.34,54.35 197.73,54.34 198.11,54.33 198.5,54.33 198.89,54.33 199.28,54.33 199.67,54.34 200.06,54.35 200.45,54.35 200.83,54.36 201.22,54.35 201.61,54.34 202,54.33 202.39,54.32 202.78,54.31 203.17,54.31 203.56,54.31 203.94,54.32 204.33,54.33 204.72,54.34 205.11,54.34 205.5,54.33 205.89,54.33 206.28,54.32 206.66,54.31 207.05,54.3 207.44,54.3 207.83,54.29 208.22,54.28 208.61,54.27 209,54.27 209.38,54.27 209.77,54.28 210.16,54.29 210.55,54.29 210.94,54.29 211.33,54.29 211.72,54.28 212.1,54.28 212.49,54.27 212.88,54.26 213.27,54.26 213.66,54.26 214.05,54.25 214.44,54.25 214.82,54.24 215.21,54.24 215.6,54.23 215.99,54.22 216.38,54.22 216.77,54.21 217.16,54.21 217.54,54.21 217.93,54.21 218.32,54.22 218.71,54.22 219.1,54.23 219.49,54.23 219.88,54.23 220.26,54.22 220.65,54.21 221.04,54.2 221.43,54.2 221.82,54.2 222.21,54.2 222.6,54.21 222.98,54.22 223.37,54.23 223.76,54.24 224.15,54.24 224.54,54.23 224.93,54.23 225.32,54.22 225.7,54.22 226.09,54.21 226.48,54.21 226.87,54.2 227.26,54.19 227.65,54.18 228.04,54.18 228.42,54.18 228.81,54.18 229.2,54.19 229.59,54.19 229.98,54.19 230.37,54.2 230.76,54.19 231.14,54.19 231.53,54.19 231.92,54.19 232.31,54.18 232.7,54.18 233.09,54.18 233.48,54.18 233.86,54.18 234.25,54.18 234.64,54.18 235.03,54.18 235.42,54.18 235.81,54.18 236.2,54.18 236.58,54.18 236.97,54.18 237.36,54.18 237.75,54.19 238.14,54.19 238.53,54.18 238.92,54.17 239.31,54.16 239.69,54.16 240.08,54.16 240.47,54.16 240.86,54.17 241.25,54.17 241.64,54.17 242.03,54.16 242.41,54.16 242.8,54.15 243.19,54.15 243.58,54.15 243.97,54.15 244.36,54.16 244.75,54.16 245.13,54.17 245.52,54.17 245.91,54.17 246.3,54.17 246.69,54.17 247.08,54.16 247.47,54.15 247.85,54.14 248.24,54.14 248.63,54.15 249.02,54.15 249.41,54.16 249.8,54.15 250.19,54.15 250.57,54.15 250.96,54.14 251.35,54.14 251.74,54.14 252.13,54.14 252.52,54.14 252.91,54.14 253.29,54.15 253.68,54.15 254.07,54.14 254.46,54.14 254.85,54.13 255.24,54.13 255.63,54.12 256.01,54.11 256.4,54.09 256.79,54.07 257.18,54.04 257.57,54.02 257.96,53.99 258.35,53.98 258.73,53.97 259.12,53.97 259.51,53.97" stroke-dasharray="none" stroke="rgb(31,120,180)" stroke-width="0.75" opacity="1" stroke-opacity="1" fill="none"/>
          </g>
          <g id="Fig:densplot_01.xyplot.lines.group.10.panel.1.1.1">
            <polyline id="Fig:densplot_01.xyplot.lines.group.10.panel.1.1.1.1" points="59.72,53.97 60.12,53.99 60.51,54.02 60.91,54.09 61.3,54.24 61.69,54.55 62.09,55.15 62.48,56.23 62.88,57.99 63.27,60.67 63.67,64.44 64.06,69.37 64.46,75.35 64.85,82.09 65.24,89.13 65.64,95.93 66.03,101.96 66.43,106.84 66.82,110.33 67.22,112.41 67.61,113.22 68.01,113.01 68.4,112.03 68.8,110.54 69.19,108.76 69.58,106.82 69.98,104.83 70.37,102.84 70.77,100.88 71.16,98.98 71.56,97.15 71.95,95.4 72.35,93.73 72.74,92.16 73.13,90.69 73.53,89.32 73.92,88.05 74.32,86.88 74.71,85.79 75.11,84.78 75.5,83.83 75.9,82.92 76.29,82.06 76.68,81.22 77.08,80.4 77.47,79.61 77.87,78.84 78.26,78.1 78.66,77.38 79.05,76.68 79.45,76.01 79.84,75.36 80.23,74.74 80.63,74.14 81.02,73.57 81.42,73.02 81.81,72.51 82.21,72.02 82.6,71.56 83,71.12 83.39,70.7 83.78,70.3 84.18,69.91 84.57,69.54 84.97,69.19 85.36,68.84 85.76,68.5 86.15,68.17 86.55,67.85 86.94,67.53 87.33,67.22 87.73,66.92 88.12,66.62 88.52,66.34 88.91,66.06 89.31,65.8 89.7,65.55 90.1,65.3 90.49,65.07 90.88,64.84 91.28,64.63 91.67,64.43 92.07,64.24 92.46,64.07 92.86,63.9 93.25,63.74 93.65,63.59 94.04,63.44 94.43,63.29 94.83,63.13 95.22,62.98 95.62,62.83 96.01,62.67 96.41,62.52 96.8,62.36 97.2,62.21 97.59,62.06 97.98,61.92 98.38,61.78 98.77,61.65 99.17,61.52 99.56,61.4 99.96,61.29 100.35,61.18 100.75,61.08 101.14,60.99 101.54,60.9 101.93,60.82 102.32,60.74 102.72,60.65 103.11,60.57 103.51,60.48 103.9,60.39 104.3,60.29 104.69,60.2 105.09,60.11 105.48,60.02 105.87,59.93 106.27,59.85 106.66,59.76 107.06,59.68 107.45,59.61 107.85,59.53 108.24,59.45 108.64,59.38 109.03,59.3 109.42,59.23 109.82,59.17 110.21,59.1 110.61,59.04 111,58.97 111.4,58.9 111.79,58.83 112.19,58.76 112.58,58.69 112.97,58.62 113.37,58.55 113.76,58.48 114.16,58.42 114.55,58.36 114.95,58.3 115.34,58.25 115.74,58.2 116.13,58.15 116.52,58.11 116.92,58.06 117.31,58.01 117.71,57.96 118.1,57.9 118.5,57.84 118.89,57.78 119.29,57.72 119.68,57.67 120.07,57.62 120.47,57.59 120.86,57.56 121.26,57.54 121.65,57.52 122.05,57.5 122.44,57.48 122.84,57.46 123.23,57.44 123.62,57.41 124.02,57.38 124.41,57.34 124.81,57.3 125.2,57.26 125.6,57.22 125.99,57.17 126.39,57.13 126.78,57.09 127.17,57.05 127.57,57.01 127.96,56.98 128.36,56.95 128.75,56.92 129.15,56.89 129.54,56.86 129.94,56.82 130.33,56.79 130.72,56.75 131.12,56.72 131.51,56.69 131.91,56.66 132.3,56.64 132.7,56.62 133.09,56.6 133.49,56.58 133.88,56.56 134.28,56.55 134.67,56.53 135.06,56.52 135.46,56.51 135.85,56.5 136.25,56.49 136.64,56.48 137.04,56.46 137.43,56.43 137.83,56.4 138.22,56.37 138.61,56.33 139.01,56.3 139.4,56.27 139.8,56.24 140.19,56.22 140.59,56.2 140.98,56.18 141.38,56.17 141.77,56.15 142.16,56.13 142.56,56.11 142.95,56.09 143.35,56.06 143.74,56.02 144.14,55.99 144.53,55.95 144.93,55.92 145.32,55.89 145.71,55.87 146.11,55.85 146.5,55.84 146.9,55.83 147.29,55.81 147.69,55.8 148.08,55.79 148.48,55.77 148.87,55.76 149.26,55.74 149.66,55.73 150.05,55.72 150.45,55.71 150.84,55.7 151.24,55.69 151.63,55.69 152.03,55.68 152.42,55.67 152.81,55.66 153.21,55.65 153.6,55.64 154,55.63 154.39,55.62 154.79,55.61 155.18,55.6 155.58,55.59 155.97,55.58 156.36,55.57 156.76,55.56 157.15,55.55 157.55,55.53 157.94,55.52 158.34,55.5 158.73,55.49 159.13,55.47 159.52,55.44 159.91,55.42 160.31,55.4 160.7,55.38 161.1,55.36 161.49,55.35 161.89,55.33 162.28,55.32 162.68,55.3 163.07,55.29 163.46,55.28 163.86,55.27 164.25,55.26 164.65,55.26 165.04,55.25 165.44,55.25 165.83,55.25 166.23,55.25 166.62,55.25 167.02,55.24 167.41,55.24 167.8,55.23 168.2,55.23 168.59,55.22 168.99,55.21 169.38,55.2 169.78,55.18 170.17,55.17 170.57,55.17 170.96,55.16 171.35,55.15 171.75,55.15 172.14,55.15 172.54,55.14 172.93,55.13 173.33,55.13 173.72,55.12 174.12,55.11 174.51,55.1 174.9,55.09 175.3,55.08 175.69,55.07 176.09,55.05 176.48,55.04 176.88,55.03 177.27,55.02 177.67,55 178.06,54.99 178.45,54.98 178.85,54.98 179.24,54.97 179.64,54.97 180.03,54.96 180.43,54.96 180.82,54.96 181.22,54.95 181.61,54.94 182,54.94 182.4,54.93 182.79,54.92 183.19,54.91 183.58,54.9 183.98,54.9 184.37,54.89 184.77,54.88 185.16,54.88 185.55,54.88 185.95,54.88 186.34,54.88 186.74,54.88 187.13,54.88 187.53,54.88 187.92,54.88 188.32,54.87 188.71,54.86 189.1,54.85 189.5,54.84 189.89,54.83 190.29,54.82 190.68,54.82 191.08,54.81 191.47,54.8 191.87,54.8 192.26,54.79 192.65,54.79 193.05,54.78 193.44,54.78 193.84,54.77 194.23,54.76 194.63,54.76 195.02,54.76 195.42,54.76 195.81,54.75 196.2,54.75 196.6,54.75 196.99,54.74 197.39,54.74 197.78,54.73 198.18,54.73 198.57,54.72 198.97,54.71 199.36,54.71 199.76,54.7 200.15,54.69 200.54,54.68 200.94,54.67 201.33,54.67 201.73,54.66 202.12,54.66 202.52,54.66 202.91,54.65 203.31,54.65 203.7,54.64 204.09,54.63 204.49,54.62 204.88,54.61 205.28,54.6 205.67,54.6 206.07,54.6 206.46,54.6 206.86,54.6 207.25,54.6 207.64,54.61 208.04,54.61 208.43,54.61 208.83,54.61 209.22,54.61 209.62,54.6 210.01,54.6 210.41,54.59 210.8,54.59 211.19,54.58 211.59,54.58 211.98,54.58 212.38,54.58 212.77,54.57 213.17,54.57 213.56,54.57 213.96,54.57 214.35,54.57 214.74,54.56 215.14,54.56 215.53,54.56 215.93,54.55 216.32,54.54 216.72,54.54 217.11,54.53 217.51,54.52 217.9,54.52 218.29,54.52 218.69,54.52 219.08,54.52 219.48,54.51 219.87,54.51 220.27,54.51 220.66,54.5 221.06,54.5 221.45,54.49 221.84,54.49 222.24,54.49 222.63,54.48 223.03,54.48 223.42,54.48 223.82,54.47 224.21,54.47 224.61,54.47 225,54.47 225.39,54.47 225.79,54.46 226.18,54.46 226.58,54.46 226.97,54.46 227.37,54.45 227.76,54.45 228.16,54.44 228.55,54.44 228.94,54.44 229.34,54.44 229.73,54.44 230.13,54.44 230.52,54.43 230.92,54.43 231.31,54.43 231.71,54.43 232.1,54.42 232.49,54.41 232.89,54.4 233.28,54.4 233.68,54.39 234.07,54.38 234.47,54.37 234.86,54.37 235.26,54.37 235.65,54.37 236.05,54.37 236.44,54.37 236.83,54.38 237.23,54.38 237.62,54.39 238.02,54.39 238.41,54.39 238.81,54.39 239.2,54.39 239.6,54.38 239.99,54.38 240.38,54.37 240.78,54.37 241.17,54.36 241.57,54.36 241.96,54.36 242.36,54.36 242.75,54.36 243.15,54.36 243.54,54.36 243.93,54.36 244.33,54.36 244.72,54.36 245.12,54.36 245.51,54.36 245.91,54.36 246.3,54.36 246.7,54.36 247.09,54.35 247.48,54.35 247.88,54.34 248.27,54.34 248.67,54.33 249.06,54.33 249.46,54.33 249.85,54.33 250.25,54.32 250.64,54.32 251.03,54.32 251.43,54.32 251.82,54.32 252.22,54.32 252.61,54.32 253.01,54.32 253.4,54.32 253.8,54.32 254.19,54.31 254.58,54.3 254.98,54.29 255.37,54.27 255.77,54.24 256.16,54.21 256.56,54.18 256.95,54.14 257.35,54.11 257.74,54.07 258.13,54.04 258.53,54.02 258.92,54 259.32,53.98 259.71,53.98 260.11,53.97 260.5,53.97 260.9,53.97 261.29,53.97" stroke-dasharray="none" stroke="rgb(31,120,180)" stroke-width="0.75" opacity="1" stroke-opacity="1" fill="none"/>
          </g>
          <g id="Fig:densplot_01.xyplot.lines.group.11.panel.1.1.1">
            <polyline id="Fig:densplot_01.xyplot.lines.group.11.panel.1.1.1.1" points="60.35,53.98 60.74,54.03 61.13,54.2 61.52,54.72 61.91,56.05 62.3,59.01 62.69,64.72 63.08,74.26 63.48,87.95 63.87,104.78 64.26,122.29 64.65,137.27 65.04,147.18 65.43,151.43 65.82,150.84 66.21,146.99 66.6,141.43 66.99,135.3 67.38,129.24 67.77,123.59 68.16,118.46 68.55,113.89 68.94,109.86 69.33,106.34 69.73,103.25 70.12,100.51 70.51,98.05 70.9,95.79 71.29,93.7 71.68,91.76 72.07,89.97 72.46,88.33 72.85,86.83 73.24,85.45 73.63,84.17 74.02,82.97 74.41,81.82 74.8,80.72 75.19,79.66 75.59,78.65 75.98,77.71 76.37,76.82 76.76,75.98 77.15,75.18 77.54,74.44 77.93,73.74 78.32,73.09 78.71,72.48 79.1,71.89 79.49,71.33 79.88,70.79 80.27,70.27 80.66,69.79 81.05,69.33 81.45,68.9 81.84,68.5 82.23,68.12 82.62,67.75 83.01,67.39 83.4,67.03 83.79,66.68 84.18,66.35 84.57,66.04 84.96,65.75 85.35,65.47 85.74,65.19 86.13,64.9 86.52,64.62 86.91,64.34 87.3,64.08 87.7,63.84 88.09,63.61 88.48,63.42 88.87,63.23 89.26,63.07 89.65,62.9 90.04,62.74 90.43,62.58 90.82,62.41 91.21,62.24 91.6,62.06 91.99,61.88 92.38,61.71 92.77,61.56 93.16,61.44 93.56,61.34 93.95,61.25 94.34,61.16 94.73,61.04 95.12,60.91 95.51,60.76 95.9,60.6 96.29,60.45 96.68,60.31 97.07,60.17 97.46,60.04 97.85,59.92 98.24,59.81 98.63,59.72 99.02,59.64 99.42,59.55 99.81,59.46 100.2,59.36 100.59,59.25 100.98,59.14 101.37,59.03 101.76,58.93 102.15,58.84 102.54,58.76 102.93,58.69 103.32,58.62 103.71,58.56 104.1,58.51 104.49,58.45 104.88,58.4 105.27,58.35 105.67,58.28 106.06,58.21 106.45,58.13 106.84,58.06 107.23,57.98 107.62,57.91 108.01,57.84 108.4,57.79 108.79,57.75 109.18,57.72 109.57,57.69 109.96,57.65 110.35,57.61 110.74,57.55 111.13,57.48 111.53,57.42 111.92,57.36 112.31,57.32 112.7,57.29 113.09,57.26 113.48,57.23 113.87,57.18 114.26,57.14 114.65,57.09 115.04,57.05 115.43,57.01 115.82,56.96 116.21,56.9 116.6,56.84 116.99,56.78 117.38,56.73 117.78,56.68 118.17,56.63 118.56,56.6 118.95,56.56 119.34,56.53 119.73,56.51 120.12,56.49 120.51,56.47 120.9,56.46 121.29,56.45 121.68,56.44 122.07,56.43 122.46,56.41 122.85,56.38 123.24,56.33 123.64,56.28 124.03,56.23 124.42,56.19 124.81,56.16 125.2,56.13 125.59,56.12 125.98,56.11 126.37,56.09 126.76,56.07 127.15,56.04 127.54,56.01 127.93,55.98 128.32,55.95 128.71,55.93 129.1,55.91 129.5,55.89 129.89,55.88 130.28,55.87 130.67,55.86 131.06,55.85 131.45,55.83 131.84,55.81 132.23,55.78 132.62,55.75 133.01,55.73 133.4,55.71 133.79,55.7 134.18,55.69 134.57,55.68 134.96,55.67 135.35,55.66 135.75,55.64 136.14,55.63 136.53,55.61 136.92,55.6 137.31,55.58 137.7,55.57 138.09,55.55 138.48,55.53 138.87,55.51 139.26,55.49 139.65,55.47 140.04,55.45 140.43,55.43 140.82,55.41 141.21,55.39 141.61,55.38 142,55.37 142.39,55.36 142.78,55.35 143.17,55.34 143.56,55.33 143.95,55.31 144.34,55.28 144.73,55.25 145.12,55.23 145.51,55.2 145.9,55.18 146.29,55.17 146.68,55.17 147.07,55.17 147.47,55.17 147.86,55.17 148.25,55.17 148.64,55.17 149.03,55.16 149.42,55.16 149.81,55.15 150.2,55.15 150.59,55.14 150.98,55.13 151.37,55.11 151.76,55.09 152.15,55.08 152.54,55.06 152.93,55.04 153.32,55.02 153.72,55 154.11,54.98 154.5,54.96 154.89,54.96 155.28,54.95 155.67,54.96 156.06,54.96 156.45,54.97 156.84,54.97 157.23,54.96 157.62,54.96 158.01,54.96 158.4,54.95 158.79,54.94 159.18,54.92 159.58,54.9 159.97,54.88 160.36,54.85 160.75,54.83 161.14,54.82 161.53,54.81 161.92,54.82 162.31,54.82 162.7,54.83 163.09,54.83 163.48,54.83 163.87,54.83 164.26,54.82 164.65,54.8 165.04,54.79 165.44,54.78 165.83,54.77 166.22,54.76 166.61,54.76 167,54.77 167.39,54.78 167.78,54.79 168.17,54.78 168.56,54.77 168.95,54.75 169.34,54.73 169.73,54.71 170.12,54.7 170.51,54.7 170.9,54.7 171.29,54.7 171.69,54.7 172.08,54.7 172.47,54.69 172.86,54.68 173.25,54.66 173.64,54.64 174.03,54.63 174.42,54.62 174.81,54.62 175.2,54.62 175.59,54.62 175.98,54.62 176.37,54.62 176.76,54.63 177.15,54.62 177.55,54.62 177.94,54.61 178.33,54.59 178.72,54.59 179.11,54.58 179.5,54.58 179.89,54.57 180.28,54.57 180.67,54.56 181.06,54.55 181.45,54.54 181.84,54.54 182.23,54.55 182.62,54.55 183.01,54.55 183.41,54.54 183.8,54.53 184.19,54.53 184.58,54.53 184.97,54.53 185.36,54.53 185.75,54.53 186.14,54.52 186.53,54.52 186.92,54.51 187.31,54.5 187.7,54.49 188.09,54.49 188.48,54.49 188.87,54.48 189.26,54.48 189.66,54.47 190.05,54.46 190.44,54.46 190.83,54.45 191.22,54.45 191.61,54.45 192,54.46 192.39,54.47 192.78,54.47 193.17,54.47 193.56,54.47 193.95,54.46 194.34,54.46 194.73,54.46 195.12,54.45 195.52,54.45 195.91,54.45 196.3,54.44 196.69,54.43 197.08,54.42 197.47,54.41 197.86,54.41 198.25,54.41 198.64,54.41 199.03,54.41 199.42,54.41 199.81,54.4 200.2,54.4 200.59,54.4 200.98,54.39 201.38,54.39 201.77,54.39 202.16,54.38 202.55,54.38 202.94,54.37 203.33,54.37 203.72,54.37 204.11,54.36 204.5,54.36 204.89,54.35 205.28,54.35 205.67,54.35 206.06,54.34 206.45,54.34 206.84,54.34 207.23,54.34 207.63,54.33 208.02,54.33 208.41,54.33 208.8,54.33 209.19,54.32 209.58,54.32 209.97,54.31 210.36,54.31 210.75,54.31 211.14,54.31 211.53,54.31 211.92,54.31 212.31,54.31 212.7,54.31 213.09,54.31 213.49,54.32 213.88,54.31 214.27,54.31 214.66,54.31 215.05,54.3 215.44,54.3 215.83,54.29 216.22,54.29 216.61,54.29 217,54.28 217.39,54.28 217.78,54.27 218.17,54.27 218.56,54.27 218.95,54.26 219.34,54.26 219.74,54.26 220.13,54.27 220.52,54.27 220.91,54.27 221.3,54.27 221.69,54.27 222.08,54.26 222.47,54.26 222.86,54.25 223.25,54.24 223.64,54.23 224.03,54.23 224.42,54.23 224.81,54.23 225.2,54.23 225.6,54.23 225.99,54.24 226.38,54.24 226.77,54.24 227.16,54.24 227.55,54.25 227.94,54.25 228.33,54.25 228.72,54.25 229.11,54.24 229.5,54.23 229.89,54.22 230.28,54.22 230.67,54.21 231.06,54.21 231.46,54.21 231.85,54.21 232.24,54.22 232.63,54.22 233.02,54.22 233.41,54.23 233.8,54.23 234.19,54.24 234.58,54.24 234.97,54.23 235.36,54.23 235.75,54.22 236.14,54.22 236.53,54.21 236.92,54.2 237.31,54.2 237.71,54.2 238.1,54.2 238.49,54.2 238.88,54.19 239.27,54.19 239.66,54.18 240.05,54.18 240.44,54.18 240.83,54.18 241.22,54.19 241.61,54.19 242,54.2 242.39,54.2 242.78,54.2 243.17,54.2 243.57,54.19 243.96,54.19 244.35,54.19 244.74,54.18 245.13,54.18 245.52,54.18 245.91,54.17 246.3,54.17 246.69,54.17 247.08,54.17 247.47,54.17 247.86,54.17 248.25,54.17 248.64,54.18 249.03,54.18 249.43,54.18 249.82,54.18 250.21,54.18 250.6,54.18 250.99,54.18 251.38,54.18 251.77,54.17 252.16,54.17 252.55,54.17 252.94,54.17 253.33,54.17 253.72,54.17 254.11,54.18 254.5,54.18 254.89,54.18 255.28,54.17 255.68,54.16 256.07,54.14 256.46,54.11 256.85,54.08 257.24,54.05 257.63,54.02 258.02,54 258.41,53.98 258.8,53.97 259.19,53.97 259.58,53.97 259.97,53.97" stroke-dasharray="none" stroke="rgb(31,120,180)" stroke-width="0.75" opacity="1" stroke-opacity="1" fill="none"/>
          </g>
          <g id="Fig:densplot_01.xyplot.lines.group.12.panel.1.1.1">
            <polyline id="Fig:densplot_01.xyplot.lines.group.12.panel.1.1.1.1" points="59.85,53.97 60.24,53.99 60.64,54.04 61.03,54.17 61.42,54.48 61.81,55.18 62.21,56.6 62.6,59.18 62.99,63.46 63.39,69.97 63.78,78.76 64.17,89.35 64.56,100.76 64.96,111.68 65.35,120.86 65.74,127.42 66.14,131.06 66.53,131.99 66.92,130.78 67.32,128.12 67.71,124.62 68.1,120.75 68.49,116.84 68.89,113.05 69.28,109.5 69.67,106.23 70.07,103.25 70.46,100.55 70.85,98.11 71.25,95.9 71.64,93.91 72.03,92.09 72.42,90.44 72.82,88.92 73.21,87.52 73.6,86.22 74,84.99 74.39,83.83 74.78,82.72 75.18,81.66 75.57,80.65 75.96,79.69 76.35,78.78 76.75,77.93 77.14,77.14 77.53,76.39 77.93,75.69 78.32,75.03 78.71,74.4 79.1,73.78 79.5,73.19 79.89,72.61 80.28,72.03 80.68,71.47 81.07,70.93 81.46,70.42 81.86,69.94 82.25,69.51 82.64,69.11 83.03,68.73 83.43,68.37 83.82,68.02 84.21,67.68 84.61,67.35 85,67.03 85.39,66.73 85.79,66.43 86.18,66.15 86.57,65.88 86.96,65.62 87.36,65.37 87.75,65.13 88.14,64.9 88.54,64.68 88.93,64.46 89.32,64.23 89.71,64.01 90.11,63.78 90.5,63.57 90.89,63.36 91.29,63.17 91.68,62.98 92.07,62.79 92.47,62.61 92.86,62.44 93.25,62.28 93.64,62.11 94.04,61.96 94.43,61.81 94.82,61.66 95.22,61.51 95.61,61.37 96,61.24 96.4,61.12 96.79,61.01 97.18,60.91 97.57,60.81 97.97,60.72 98.36,60.63 98.75,60.53 99.15,60.42 99.54,60.3 99.93,60.19 100.33,60.07 100.72,59.96 101.11,59.86 101.5,59.76 101.9,59.68 102.29,59.6 102.68,59.52 103.08,59.44 103.47,59.35 103.86,59.26 104.25,59.18 104.65,59.09 105.04,59.01 105.43,58.94 105.83,58.87 106.22,58.81 106.61,58.76 107.01,58.69 107.4,58.63 107.79,58.57 108.18,58.51 108.58,58.46 108.97,58.43 109.36,58.4 109.76,58.37 110.15,58.34 110.54,58.3 110.94,58.25 111.33,58.2 111.72,58.14 112.11,58.07 112.51,58.01 112.9,57.94 113.29,57.88 113.69,57.82 114.08,57.76 114.47,57.7 114.86,57.65 115.26,57.6 115.65,57.55 116.04,57.49 116.44,57.44 116.83,57.39 117.22,57.34 117.62,57.3 118.01,57.26 118.4,57.22 118.79,57.18 119.19,57.14 119.58,57.1 119.97,57.06 120.37,57.02 120.76,56.98 121.15,56.94 121.55,56.9 121.94,56.86 122.33,56.83 122.72,56.81 123.12,56.79 123.51,56.78 123.9,56.78 124.3,56.77 124.69,56.76 125.08,56.74 125.47,56.72 125.87,56.69 126.26,56.65 126.65,56.62 127.05,56.59 127.44,56.56 127.83,56.52 128.23,56.49 128.62,56.46 129.01,56.43 129.4,56.41 129.8,56.38 130.19,56.35 130.58,56.32 130.98,56.28 131.37,56.25 131.76,56.22 132.16,56.19 132.55,56.16 132.94,56.13 133.33,56.11 133.73,56.09 134.12,56.08 134.51,56.08 134.91,56.08 135.3,56.08 135.69,56.08 136.09,56.07 136.48,56.05 136.87,56.03 137.26,56.01 137.66,55.98 138.05,55.96 138.44,55.94 138.84,55.92 139.23,55.9 139.62,55.88 140.01,55.86 140.41,55.84 140.8,55.82 141.19,55.8 141.59,55.78 141.98,55.75 142.37,55.73 142.77,55.7 143.16,55.68 143.55,55.65 143.94,55.62 144.34,55.59 144.73,55.56 145.12,55.53 145.52,55.52 145.91,55.5 146.3,55.49 146.7,55.49 147.09,55.49 147.48,55.49 147.87,55.49 148.27,55.48 148.66,55.48 149.05,55.47 149.45,55.46 149.84,55.45 150.23,55.43 150.62,55.42 151.02,55.41 151.41,55.4 151.8,55.38 152.2,55.37 152.59,55.35 152.98,55.34 153.38,55.33 153.77,55.32 154.16,55.3 154.55,55.29 154.95,55.28 155.34,55.27 155.73,55.26 156.13,55.25 156.52,55.23 156.91,55.22 157.31,55.2 157.7,55.19 158.09,55.19 158.48,55.18 158.88,55.18 159.27,55.18 159.66,55.19 160.06,55.18 160.45,55.18 160.84,55.18 161.24,55.17 161.63,55.16 162.02,55.15 162.41,55.13 162.81,55.12 163.2,55.11 163.59,55.1 163.99,55.09 164.38,55.08 164.77,55.07 165.16,55.05 165.56,55.03 165.95,55.02 166.34,55 166.74,54.98 167.13,54.97 167.52,54.96 167.92,54.95 168.31,54.94 168.7,54.94 169.09,54.94 169.49,54.94 169.88,54.95 170.27,54.95 170.67,54.95 171.06,54.94 171.45,54.93 171.85,54.92 172.24,54.91 172.63,54.9 173.02,54.89 173.42,54.89 173.81,54.88 174.2,54.88 174.6,54.87 174.99,54.86 175.38,54.85 175.77,54.84 176.17,54.83 176.56,54.83 176.95,54.82 177.35,54.82 177.74,54.83 178.13,54.83 178.53,54.83 178.92,54.83 179.31,54.83 179.7,54.83 180.1,54.82 180.49,54.82 180.88,54.81 181.28,54.79 181.67,54.78 182.06,54.77 182.46,54.76 182.85,54.75 183.24,54.74 183.63,54.73 184.03,54.72 184.42,54.72 184.81,54.72 185.21,54.72 185.6,54.72 185.99,54.71 186.38,54.71 186.78,54.71 187.17,54.71 187.56,54.7 187.96,54.7 188.35,54.69 188.74,54.68 189.14,54.67 189.53,54.65 189.92,54.64 190.31,54.63 190.71,54.62 191.1,54.61 191.49,54.6 191.89,54.6 192.28,54.6 192.67,54.6 193.07,54.61 193.46,54.61 193.85,54.62 194.24,54.62 194.64,54.62 195.03,54.62 195.42,54.61 195.82,54.61 196.21,54.61 196.6,54.61 197,54.61 197.39,54.61 197.78,54.6 198.17,54.6 198.57,54.59 198.96,54.58 199.35,54.58 199.75,54.57 200.14,54.56 200.53,54.56 200.92,54.55 201.32,54.54 201.71,54.53 202.1,54.52 202.5,54.52 202.89,54.52 203.28,54.52 203.68,54.52 204.07,54.52 204.46,54.52 204.85,54.52 205.25,54.52 205.64,54.51 206.03,54.51 206.43,54.51 206.82,54.51 207.21,54.51 207.61,54.51 208,54.51 208.39,54.51 208.78,54.51 209.18,54.5 209.57,54.49 209.96,54.48 210.36,54.48 210.75,54.47 211.14,54.47 211.53,54.47 211.93,54.46 212.32,54.46 212.71,54.46 213.11,54.46 213.5,54.46 213.89,54.46 214.29,54.46 214.68,54.45 215.07,54.45 215.46,54.44 215.86,54.44 216.25,54.44 216.64,54.43 217.04,54.43 217.43,54.43 217.82,54.43 218.22,54.43 218.61,54.43 219,54.43 219.39,54.42 219.79,54.42 220.18,54.42 220.57,54.42 220.97,54.42 221.36,54.41 221.75,54.41 222.15,54.41 222.54,54.4 222.93,54.4 223.32,54.4 223.72,54.4 224.11,54.39 224.5,54.39 224.9,54.38 225.29,54.38 225.68,54.38 226.07,54.38 226.47,54.37 226.86,54.37 227.25,54.37 227.65,54.38 228.04,54.38 228.43,54.38 228.83,54.38 229.22,54.38 229.61,54.38 230,54.38 230.4,54.38 230.79,54.37 231.18,54.37 231.58,54.36 231.97,54.36 232.36,54.36 232.76,54.36 233.15,54.36 233.54,54.36 233.93,54.36 234.33,54.35 234.72,54.35 235.11,54.35 235.51,54.35 235.9,54.35 236.29,54.35 236.68,54.35 237.08,54.35 237.47,54.35 237.86,54.35 238.26,54.34 238.65,54.34 239.04,54.34 239.44,54.34 239.83,54.34 240.22,54.34 240.61,54.34 241.01,54.33 241.4,54.33 241.79,54.32 242.19,54.31 242.58,54.31 242.97,54.3 243.37,54.3 243.76,54.3 244.15,54.29 244.54,54.29 244.94,54.29 245.33,54.29 245.72,54.29 246.12,54.29 246.51,54.29 246.9,54.29 247.29,54.29 247.69,54.29 248.08,54.3 248.47,54.3 248.87,54.3 249.26,54.3 249.65,54.31 250.05,54.31 250.44,54.31 250.83,54.3 251.22,54.3 251.62,54.29 252.01,54.28 252.4,54.28 252.8,54.27 253.19,54.27 253.58,54.27 253.98,54.26 254.37,54.26 254.76,54.26 255.15,54.26 255.55,54.25 255.94,54.23 256.33,54.21 256.73,54.17 257.12,54.13 257.51,54.09 257.91,54.05 258.3,54.02 258.69,54 259.08,53.98 259.48,53.97 259.87,53.97 260.26,53.97 260.66,53.97" stroke-dasharray="none" stroke="rgb(31,120,180)" stroke-width="0.75" opacity="1" stroke-opacity="1" fill="none"/>
          </g>
        </g>
        <g id="Fig:densplot_01.panel.1.1.off.vp.2">
          <g id="Fig:densplot_01.border.panel.1.1.1">
            <rect id="Fig:densplot_01.border.panel.1.1.1.1" x="44.8" y="42.19" width="231.2" height="191.81" transform="" stroke="rgb(0,0,0)" stroke-dasharray="none" stroke-width="0.75" opacity="1" fill="none" stroke-opacity="1" fill-opacity="0"/>
          </g>
        </g>
        <g id="Fig:densplot_01..1"/>
      </g>
    </g>
  </g>
</svg>